<svg width="18" height="19" viewBox="0 0 18 19" fill="none" xmlns="http://www.w3.org/2000/svg">
<g opacity="0.5">
<path d="M2.41219 18.1925H15.1065C16.4372 18.1925 17.5187 17.111 17.5187 15.7803V3.75976C17.5187 2.42901 16.4372 1.34756 15.1065 1.34756H14.1497V0.673782C14.1497 0.303191 13.8465 0 13.4759 0C13.1053 0 12.8021 0.303191 12.8021 0.673782V1.34756H4.71659V0.673782C4.71659 0.303191 4.41334 0 4.04275 0C3.67216 0 3.36897 0.303191 3.36897 0.673782V1.34756H2.41219C1.08145 1.34756 0 2.42901 0 3.75976V15.7803C0 17.111 1.08145 18.1925 2.41219 18.1925ZM1.34762 3.75976C1.34762 3.17357 1.82601 2.69519 2.41219 2.69519H3.36897V3.36897C3.36897 3.73956 3.67216 4.04275 4.04275 4.04275C4.41334 4.04275 4.71653 3.73956 4.71653 3.36897V2.69519H12.8021V3.36897C12.8021 3.73956 13.1053 4.04275 13.4759 4.04275C13.8465 4.04275 14.1497 3.73956 14.1497 3.36897V2.69519H15.1064C15.6926 2.69519 16.171 3.17357 16.171 3.75976V15.7803C16.171 16.3664 15.6926 16.8448 15.1064 16.8448H2.41219C1.82601 16.8448 1.34762 16.3664 1.34762 15.7803V3.75976Z" fill="#12223D"/>
<path d="M4.8852 7.74863C5.35035 7.74863 5.72742 7.37155 5.72742 6.9064C5.72742 6.44125 5.35035 6.06418 4.8852 6.06418C4.42005 6.06418 4.04297 6.44125 4.04297 6.9064C4.04297 7.37155 4.42005 7.74863 4.8852 7.74863Z" fill="#12223D"/>
<path d="M8.59076 7.74863C9.05591 7.74863 9.43299 7.37155 9.43299 6.9064C9.43299 6.44125 9.05591 6.06418 8.59076 6.06418C8.12561 6.06418 7.74854 6.44125 7.74854 6.9064C7.74854 7.37155 8.12561 7.74863 8.59076 7.74863Z" fill="#12223D"/>
<path d="M12.2968 7.74863C12.762 7.74863 13.139 7.37155 13.139 6.9064C13.139 6.44125 12.762 6.06418 12.2968 6.06418C11.8317 6.06418 11.4546 6.44125 11.4546 6.9064C11.4546 7.37155 11.8317 7.74863 12.2968 7.74863Z" fill="#12223D"/>
<path d="M4.8852 11.1176C5.35035 11.1176 5.72742 10.7405 5.72742 10.2754C5.72742 9.81022 5.35035 9.43314 4.8852 9.43314C4.42005 9.43314 4.04297 9.81022 4.04297 10.2754C4.04297 10.7405 4.42005 11.1176 4.8852 11.1176Z" fill="#12223D"/>
<path d="M8.59076 11.1176C9.05591 11.1176 9.43299 10.7405 9.43299 10.2754C9.43299 9.81022 9.05591 9.43314 8.59076 9.43314C8.12561 9.43314 7.74854 9.81022 7.74854 10.2754C7.74854 10.7405 8.12561 11.1176 8.59076 11.1176Z" fill="#12223D"/>
<path d="M12.2968 11.1176C12.762 11.1176 13.139 10.7405 13.139 10.2754C13.139 9.81022 12.762 9.43314 12.2968 9.43314C11.8317 9.43314 11.4546 9.81022 11.4546 10.2754C11.4546 10.7405 11.8317 11.1176 12.2968 11.1176Z" fill="#12223D"/>
<path d="M4.8852 14.4866C5.35035 14.4866 5.72742 14.1095 5.72742 13.6443C5.72742 13.1792 5.35035 12.8021 4.8852 12.8021C4.42005 12.8021 4.04297 13.1792 4.04297 13.6443C4.04297 14.1095 4.42005 14.4866 4.8852 14.4866Z" fill="#12223D"/>
<path d="M8.59076 14.4866C9.05591 14.4866 9.43299 14.1095 9.43299 13.6443C9.43299 13.1792 9.05591 12.8021 8.59076 12.8021C8.12561 12.8021 7.74854 13.1792 7.74854 13.6443C7.74854 14.1095 8.12561 14.4866 8.59076 14.4866Z" fill="#12223D"/>
<path d="M12.2968 14.4866C12.762 14.4866 13.139 14.1095 13.139 13.6443C13.139 13.1792 12.762 12.8021 12.2968 12.8021C11.8317 12.8021 11.4546 13.1792 11.4546 13.6443C11.4546 14.1095 11.8317 14.4866 12.2968 14.4866Z" fill="#12223D"/>
</g>
</svg>
