<svg width="15" height="17" viewBox="0 0 15 17" fill="none" xmlns="http://www.w3.org/2000/svg">
<g clip-path="url(#clip0_302_3224)">
<path d="M7.5 0.711548C3.36955 0.711548 0 4.18636 0 8.5C0 12.8045 3.3544 16.2885 7.5 16.2885C11.645 16.2885 15 12.805 15 8.5C15 4.19554 11.6456 0.711548 7.5 0.711548ZM7.5 1.92849C8.888 1.92849 10.2076 2.38975 11.2971 3.24188C11.1338 4.72391 10.2695 5.31915 9.50139 5.84806C9.0593 6.15248 8.6775 6.41537 8.48728 6.82841C8.1648 7.52858 8.58659 8.15226 8.86567 8.56493C8.98436 8.74044 9.13204 8.95882 9.15038 9.07881C9.15706 9.12241 9.06835 9.20632 8.99944 9.26157C8.56632 9.49769 8.10296 9.46665 7.5842 9.16713C6.36656 8.46413 5.26222 6.46171 5.21725 5.50489C5.16252 4.33978 4.40487 3.60751 3.76523 3.19366C4.84257 2.37234 6.13837 1.92849 7.5 1.92849ZM11.5024 13.5909C11.1688 12.9829 11.0297 12.4621 11.126 12.1437C11.2047 11.8833 11.6508 11.6485 12.1673 11.3767C12.566 11.1668 13.0374 10.9185 13.51 10.5678C13.1201 11.7942 12.4013 12.826 11.5024 13.5909ZM11.6375 10.2912C10.916 10.6709 10.2346 11.0296 10.008 11.7791C9.76397 12.586 10.0995 13.5121 10.5289 14.2728C9.61055 14.7942 8.57587 15.0715 7.5 15.0715C4.00263 15.0715 1.17188 12.1324 1.17188 8.5C1.17188 6.83696 1.76306 5.26849 2.84165 4.05258C3.27773 4.27221 4.00896 4.75875 4.04678 5.56421C4.1105 6.92047 5.42443 9.31256 7.01476 10.2308C7.8576 10.7174 8.75733 10.794 9.60023 10.3076C10.0345 10.0573 10.4006 9.49586 10.3078 8.88809C10.2469 8.48993 10.0226 8.15822 9.82465 7.86555C9.72589 7.71948 9.54267 7.44856 9.54369 7.35525C9.54387 7.35477 9.54413 7.35419 9.54445 7.35346C9.59496 7.24381 9.91515 7.0233 10.149 6.8623C11.1453 6.17631 11.9274 5.48371 12.2979 4.21456C13.288 5.40622 13.8281 6.91 13.8281 8.5C13.8281 8.51823 13.8276 8.53633 13.8275 8.55452C13.1977 9.46951 12.3709 9.90515 11.6375 10.2912Z" fill="#4E93D6"/>
</g>
<defs>
<clipPath id="clip0_302_3224">
<rect width="15" height="15.5769" fill="white" transform="translate(0 0.711548)"/>
</clipPath>
</defs>
</svg>
