<svg width="15" height="17" viewBox="0 0 15 17" fill="none" xmlns="http://www.w3.org/2000/svg">
<path d="M2.06539 16.2885H12.9346C14.074 16.2885 15 15.3625 15 14.2231V3.93076C15 2.79134 14.074 1.86537 12.9346 1.86537H12.1154V1.28846C12.1154 0.971149 11.8557 0.711548 11.5384 0.711548C11.2211 0.711548 10.9615 0.971149 10.9615 1.28846V1.86537H4.03848V1.28846C4.03848 0.971149 3.77883 0.711548 3.46152 0.711548C3.14421 0.711548 2.88461 0.971149 2.88461 1.28846V1.86537H2.06539C0.925969 1.86537 0 2.79134 0 3.93076V14.2231C0 15.3625 0.925969 16.2885 2.06539 16.2885ZM1.15387 3.93076C1.15387 3.42885 1.56348 3.01924 2.06539 3.01924H2.88461V3.59616C2.88461 3.91347 3.14421 4.17307 3.46152 4.17307C3.77883 4.17307 4.03843 3.91347 4.03843 3.59616V3.01924H10.9615V3.59616C10.9615 3.91347 11.2211 4.17307 11.5384 4.17307C11.8557 4.17307 12.1153 3.91347 12.1153 3.59616V3.01924H12.9346C13.4365 3.01924 13.8461 3.42885 13.8461 3.93076V14.2231C13.8461 14.725 13.4365 15.1346 12.9346 15.1346H2.06539C1.56348 15.1346 1.15387 14.725 1.15387 14.2231V3.93076Z" fill="#4E93D6"/>
<path d="M4.18208 7.34615C4.58035 7.34615 4.90322 7.02328 4.90322 6.62501C4.90322 6.22673 4.58035 5.90387 4.18208 5.90387C3.7838 5.90387 3.46094 6.22673 3.46094 6.62501C3.46094 7.02328 3.7838 7.34615 4.18208 7.34615Z" fill="#4E93D6"/>
<path d="M7.35591 7.34615C7.75418 7.34615 8.07705 7.02328 8.07705 6.62501C8.07705 6.22673 7.75418 5.90387 7.35591 5.90387C6.95763 5.90387 6.63477 6.22673 6.63477 6.62501C6.63477 7.02328 6.95763 7.34615 7.35591 7.34615Z" fill="#4E93D6"/>
<path d="M10.5297 7.34615C10.928 7.34615 11.2509 7.02328 11.2509 6.62501C11.2509 6.22673 10.928 5.90387 10.5297 5.90387C10.1315 5.90387 9.80859 6.22673 9.80859 6.62501C9.80859 7.02328 10.1315 7.34615 10.5297 7.34615Z" fill="#4E93D6"/>
<path d="M4.18208 10.2308C4.58035 10.2308 4.90322 9.9079 4.90322 9.50962C4.90322 9.11135 4.58035 8.78848 4.18208 8.78848C3.7838 8.78848 3.46094 9.11135 3.46094 9.50962C3.46094 9.9079 3.7838 10.2308 4.18208 10.2308Z" fill="#4E93D6"/>
<path d="M7.35591 10.2307C7.75418 10.2307 8.07705 9.90787 8.07705 9.50959C8.07705 9.11132 7.75418 8.78845 7.35591 8.78845C6.95763 8.78845 6.63477 9.11132 6.63477 9.50959C6.63477 9.90787 6.95763 10.2307 7.35591 10.2307Z" fill="#4E93D6"/>
<path d="M10.5297 10.2307C10.928 10.2307 11.2509 9.90787 11.2509 9.50959C11.2509 9.11132 10.928 8.78845 10.5297 8.78845C10.1315 8.78845 9.80859 9.11132 9.80859 9.50959C9.80859 9.90787 10.1315 10.2307 10.5297 10.2307Z" fill="#4E93D6"/>
<path d="M4.18208 13.1154C4.58035 13.1154 4.90322 12.7925 4.90322 12.3942C4.90322 11.996 4.58035 11.6731 4.18208 11.6731C3.7838 11.6731 3.46094 11.996 3.46094 12.3942C3.46094 12.7925 3.7838 13.1154 4.18208 13.1154Z" fill="#4E93D6"/>
<path d="M7.35591 13.1154C7.75418 13.1154 8.07705 12.7925 8.07705 12.3942C8.07705 11.996 7.75418 11.6731 7.35591 11.6731C6.95763 11.6731 6.63477 11.996 6.63477 12.3942C6.63477 12.7925 6.95763 13.1154 7.35591 13.1154Z" fill="#4E93D6"/>
<path d="M10.5297 13.1154C10.928 13.1154 11.2509 12.7925 11.2509 12.3942C11.2509 11.996 10.928 11.6731 10.5297 11.6731C10.1315 11.6731 9.80859 11.996 9.80859 12.3942C9.80859 12.7925 10.1315 13.1154 10.5297 13.1154Z" fill="#4E93D6"/>
</svg>
