<svg width="12" height="12" viewBox="0 0 12 12" fill="none" xmlns="http://www.w3.org/2000/svg">
<mask id="mask0_105_598" style="mask-type:luminance" maskUnits="userSpaceOnUse" x="0" y="0" width="12" height="12">
<path d="M0 0H12V12H0V0Z" fill="white"/>
</mask>
<g mask="url(#mask0_105_598)">
<path d="M10.5938 1.59375H1.40625C0.888492 1.59375 0.46875 2.01349 0.46875 2.53125V3.45576L5.44048 7.15378C5.77259 7.40081 6.22741 7.40081 6.55952 7.15378L11.5312 3.45576V2.53125C11.5312 2.01349 11.1115 1.59375 10.5938 1.59375Z" stroke="#12223D" stroke-width="0.9375" stroke-miterlimit="10"/>
<path d="M11.0625 5.55702V9.46877C11.0625 9.72721 10.8522 9.93752 10.5938 9.93752H1.40625C1.14778 9.93752 0.9375 9.72721 0.9375 9.46877V5.55702L0 4.85971V9.46877C0 10.2442 0.630844 10.875 1.40625 10.875H10.5938C11.3692 10.875 12 10.2442 12 9.46877V4.85971L11.0625 5.55702Z" fill="#12223D"/>
</g>
</svg>
