<svg width="15" height="17" viewBox="0 0 15 17" fill="none" xmlns="http://www.w3.org/2000/svg">
<path d="M4.87976 15.4182C4.68711 15.4188 4.49635 15.3802 4.3191 15.3047C4.10097 15.2104 3.90999 15.0629 3.76368 14.8757C3.61736 14.6884 3.52039 14.4675 3.48167 14.233L3.24747 12.8136C2.81055 12.5791 2.41499 12.2747 2.07647 11.9123C0.401593 9.96777 0.401593 4.81539 2.07647 2.87083C3.09133 1.71403 5.27009 1.00433 7.91016 1.00433C10.5502 1.00433 12.729 1.71403 13.7438 2.87083C15.4187 4.81539 15.4187 9.96777 13.7438 11.9123C12.7503 13.0691 10.5999 13.7788 8.00242 13.7788C7.86161 13.7764 7.72326 13.8159 7.60499 13.8924L5.66752 15.1982C5.43328 15.3497 5.15857 15.4264 4.87976 15.4182ZM7.91016 2.42372C5.78107 2.42372 3.8649 2.97728 3.15521 3.80053C1.93453 5.21992 1.93453 9.57034 3.15521 10.9826C3.37078 11.2126 3.6255 11.4024 3.90748 11.5433C4.09734 11.65 4.2601 11.7989 4.38316 11.9786C4.50623 12.1583 4.5863 12.3639 4.61718 12.5794L4.85137 13.9988L6.78884 12.7072C7.13996 12.4796 7.54854 12.3566 7.96693 12.3523C10.096 12.3523 11.9341 11.7988 12.6367 10.9826C13.8574 9.56324 13.8574 5.21282 12.6367 3.80053C11.9554 2.97728 10.0392 2.42372 7.91016 2.42372Z" fill="#4E93D6"/>
<path d="M9.68395 10.2303C9.49572 10.2303 9.31521 10.1556 9.18212 10.0225C9.04902 9.88937 8.97425 9.70885 8.97425 9.52063V6.32701C8.97425 6.04467 8.8621 5.7739 8.66245 5.57426C8.46281 5.37462 8.19204 5.26247 7.90971 5.26247C7.62738 5.26247 7.35661 5.37462 7.15697 5.57426C6.95733 5.7739 6.84517 6.04467 6.84517 6.32701V9.52063C6.84517 9.70885 6.7704 9.88937 6.6373 10.0225C6.50421 10.1556 6.3237 10.2303 6.13548 10.2303C5.94725 10.2303 5.76674 10.1556 5.63365 10.0225C5.50055 9.88937 5.42578 9.70885 5.42578 9.52063V6.32701C5.42578 5.66823 5.68748 5.03643 6.15331 4.5706C6.61913 4.10478 7.25093 3.84308 7.90971 3.84308C8.56849 3.84308 9.20029 4.10478 9.66611 4.5706C10.1319 5.03643 10.3936 5.66823 10.3936 6.32701V9.52063C10.3936 9.70885 10.3189 9.88937 10.1858 10.0225C10.0527 10.1556 9.87217 10.2303 9.68395 10.2303Z" fill="#4E93D6"/>
<path d="M9.68395 8.45613H6.13548C5.94725 8.45613 5.76674 8.38136 5.63365 8.24827C5.50055 8.11517 5.42578 7.93466 5.42578 7.74644C5.42578 7.55821 5.50055 7.3777 5.63365 7.24461C5.76674 7.11151 5.94725 7.03674 6.13548 7.03674H9.68395C9.87217 7.03674 10.0527 7.11151 10.1858 7.24461C10.3189 7.3777 10.3936 7.55821 10.3936 7.74644C10.3936 7.93466 10.3189 8.11517 10.1858 8.24827C10.0527 8.38136 9.87217 8.45613 9.68395 8.45613Z" fill="#4E93D6"/>
</svg>
