<svg width="15" height="17" viewBox="0 0 15 17" fill="none" xmlns="http://www.w3.org/2000/svg">
<path d="M7.72444 16.7115C7.64998 16.7119 7.57621 16.6974 7.50745 16.6688C7.43868 16.6403 7.37631 16.5983 7.32399 16.5453L2.972 12.1933C2.03088 11.2532 1.38975 10.055 1.12972 8.75041C0.869693 7.44581 1.00245 6.09339 1.51121 4.86426C2.01996 3.63512 2.88184 2.5845 3.98782 1.8453C5.0938 1.1061 6.39417 0.711548 7.72444 0.711548C9.0547 0.711548 10.3551 1.1061 11.4611 1.8453C12.567 2.5845 13.4289 3.63512 13.9377 4.86426C14.4464 6.09339 14.5792 7.44581 14.3192 8.75041C14.0591 10.055 13.418 11.2532 12.4769 12.1933L8.12488 16.5453C8.07256 16.5983 8.01019 16.6403 7.94143 16.6688C7.87266 16.6974 7.79889 16.7119 7.72444 16.7115ZM7.72444 1.84979C6.61919 1.85056 5.53897 2.17889 4.62023 2.79331C3.7015 3.40772 2.98548 4.28064 2.56262 5.3018C2.13977 6.32296 2.02905 7.44653 2.24446 8.53059C2.45987 9.61464 2.99175 10.6105 3.77289 11.3924L7.72444 15.344L11.676 11.3924C12.4571 10.6105 12.989 9.61464 13.2044 8.53059C13.4198 7.44653 13.3091 6.32296 12.8862 5.3018C12.4634 4.28064 11.7474 3.40772 10.8286 2.79331C9.9099 2.17889 8.82968 1.85056 7.72444 1.84979Z" fill="#4E93D6"/>
<path d="M7.72395 9.93421C7.16358 9.93421 6.61578 9.76803 6.14984 9.4567C5.6839 9.14537 5.32075 8.70287 5.1063 8.18514C4.89185 7.66742 4.83574 7.09773 4.94507 6.54812C5.05439 5.99851 5.32424 5.49366 5.72049 5.09741C6.11674 4.70116 6.62159 4.43132 7.1712 4.32199C7.72081 4.21267 8.2905 4.26878 8.80822 4.48322C9.32595 4.69767 9.76845 5.06083 10.0798 5.52676C10.3911 5.9927 10.5573 6.5405 10.5573 7.10088C10.5573 7.85232 10.2588 8.57299 9.72742 9.10434C9.19607 9.63569 8.4754 9.93421 7.72395 9.93421ZM7.72395 5.40088C7.38773 5.40088 7.05905 5.50058 6.77949 5.68738C6.49992 5.87418 6.28203 6.13968 6.15336 6.45032C6.02469 6.76095 5.99103 7.10276 6.05662 7.43253C6.12222 7.7623 6.28413 8.06521 6.52188 8.30296C6.75962 8.54071 7.06253 8.70261 7.3923 8.76821C7.72207 8.8338 8.06388 8.80014 8.37452 8.67147C8.68515 8.5428 8.95065 8.32491 9.13745 8.04535C9.32425 7.76578 9.42395 7.4371 9.42395 7.10088C9.42395 6.65001 9.24485 6.21761 8.92603 5.8988C8.60722 5.57999 8.17482 5.40088 7.72395 5.40088Z" fill="#4E93D6"/>
</svg>
