<svg width="110" height="57" viewBox="0 0 110 57" fill="none" xmlns="http://www.w3.org/2000/svg">
<path d="M2.83474 39.0292V43.5257H9.97046V44.992H2.83474V49.7817H11.9255V51.2479H0V37.563H11.9255V39.0292H2.83474Z" fill="white"/>
<path d="M14.5586 48.0222C14.5586 49.2604 15.308 49.8794 16.8068 49.8794H19.5438V46.165H16.8068C15.308 46.165 14.5586 46.784 14.5586 48.0222ZM19.5438 44.7965C19.5438 43.8581 19.2962 43.1673 18.8009 42.7242C18.3187 42.281 17.6866 42.0595 16.9046 42.0595C16.3181 42.0595 15.7446 42.1507 15.1842 42.3332C14.6237 42.5026 14.122 42.7372 13.6788 43.037L12.9946 41.864C13.2813 41.6685 13.5941 41.499 13.933 41.3557C14.2849 41.2123 14.6433 41.095 15.0082 41.0038C15.3732 40.8995 15.7316 40.8213 16.0835 40.7692C16.4484 40.717 16.7873 40.691 17.1001 40.691C17.9342 40.691 18.6706 40.7887 19.3092 40.9842C19.9478 41.1797 20.4887 41.4599 20.9319 41.8249C21.375 42.1898 21.7073 42.6264 21.9289 43.1347C22.1635 43.63 22.2808 44.1839 22.2808 44.7965V51.2479H16.8068C15.0343 51.2479 13.7245 50.9808 12.8773 50.4464C12.0432 49.912 11.6261 49.104 11.6261 48.0222C11.6261 46.9404 12.0432 46.1324 12.8773 45.598C13.7245 45.0636 15.0343 44.7965 16.8068 44.7965H19.5438Z" fill="white"/>
<path d="M26.2794 43.2325C26.2794 43.5322 26.4097 43.8059 26.6704 44.0536C26.9441 44.3012 27.4002 44.5163 28.0389 44.6987L31.0691 45.5785C32.0075 45.8522 32.7308 46.2236 33.2391 46.6928C33.7474 47.162 34.0016 47.7681 34.0016 48.511C34.0016 48.9802 33.9038 49.4102 33.7083 49.8012C33.5128 50.1792 33.1935 50.505 32.7504 50.7787C32.3073 51.0524 31.7338 51.261 31.03 51.4043C30.3262 51.5607 29.4595 51.6389 28.4299 51.6389C27.8955 51.6389 27.3676 51.5998 26.8463 51.5216C26.338 51.4434 25.8493 51.3392 25.3801 51.2088C24.9239 51.0655 24.5068 50.9091 24.1289 50.7396C23.7509 50.5572 23.4251 50.3682 23.1514 50.1727L23.9334 48.9997C24.4808 49.3386 25.1194 49.6383 25.8493 49.899C26.5922 50.1466 27.4524 50.2704 28.4299 50.2704C29.4074 50.2704 30.0916 50.1401 30.4826 49.8794C30.8736 49.6188 31.0691 49.2929 31.0691 48.9019C31.0691 48.6022 30.9323 48.335 30.6586 48.1004C30.3849 47.8528 29.9026 47.6312 29.2119 47.4357L26.1816 46.556C25.3475 46.3083 24.6632 45.9564 24.1289 45.5003C23.6075 45.0311 23.3469 44.4055 23.3469 43.6235C23.3469 43.2064 23.4381 42.8219 23.6206 42.47C23.8161 42.1051 24.1158 41.7923 24.5199 41.5316C24.9239 41.271 25.4387 41.0689 26.0643 40.9256C26.6899 40.7692 27.4458 40.691 28.3321 40.691C29.4139 40.691 30.3914 40.8409 31.2646 41.1406C32.1509 41.4274 32.8677 41.7662 33.4151 42.1572L32.6331 43.3302C32.0987 42.9914 31.4927 42.6981 30.815 42.4505C30.1372 42.1898 29.3096 42.0595 28.3321 42.0595C27.6413 42.0595 27.1265 42.1703 26.7877 42.3918C26.4488 42.6134 26.2794 42.8936 26.2794 43.2325Z" fill="white"/>
<path d="M42.9991 50.8569H40.4576C38.5939 50.8569 37.2124 50.5246 36.3131 49.8599C35.4268 49.1822 34.9837 48.1786 34.9837 46.8492V41.082H37.7207V46.8492C37.7207 47.7876 37.9553 48.4653 38.4245 48.8824C38.8937 49.2864 39.5714 49.4884 40.4576 49.4884H42.9991V41.082H45.7361V51.0524C45.7361 51.665 45.6188 52.2189 45.3842 52.7142C45.1496 53.2225 44.7977 53.6591 44.3285 54.024C43.8724 54.389 43.2924 54.6692 42.5886 54.8647C41.8978 55.0602 41.0898 55.1579 40.1644 55.1579C39.8516 55.1579 39.5127 55.1319 39.1478 55.0797C38.7959 55.0406 38.4375 54.9689 38.0726 54.8647C37.7076 54.7734 37.3492 54.6496 36.9973 54.4932C36.6584 54.3499 36.3456 54.1804 36.0589 53.9849L36.8409 52.8119C37.284 53.1117 37.7793 53.3463 38.3267 53.5157C38.8741 53.6982 39.4215 53.7894 39.9689 53.7894C40.9464 53.7894 41.6958 53.5679 42.2171 53.1247C42.7385 52.6816 42.9991 51.9908 42.9991 51.0524V50.8569Z" fill="white"/>
<path d="M54.933 38.5405C54.2683 38.5405 53.6427 38.6578 53.0562 38.8924C52.4827 39.127 51.9809 39.4854 51.5508 39.9676C51.1208 40.4499 50.7754 41.0624 50.5147 41.8053C50.2671 42.5352 50.1433 43.4019 50.1433 44.4055C50.1433 45.409 50.2671 46.2823 50.5147 47.0252C50.7754 47.755 51.1208 48.3611 51.5508 48.8433C51.9809 49.3255 52.4827 49.6839 53.0562 49.9185C53.6427 50.1531 54.2683 50.2704 54.933 50.2704C55.5977 50.2704 56.2168 50.1531 56.7902 49.9185C57.3767 49.6839 57.885 49.3255 58.3151 48.8433C58.7452 48.3611 59.0841 47.755 59.3317 47.0252C59.5924 46.2823 59.7227 45.409 59.7227 44.4055C59.7227 43.4019 59.5924 42.5352 59.3317 41.8053C59.0841 41.0624 58.7452 40.4499 58.3151 39.9676C57.885 39.4854 57.3767 39.127 56.7902 38.8924C56.2168 38.6578 55.5977 38.5405 54.933 38.5405ZM54.933 37.172C56.106 37.172 57.1682 37.3284 58.1196 37.6412C59.0841 37.954 59.9052 38.4167 60.5829 39.0292C61.2737 39.6418 61.808 40.3977 62.186 41.297C62.564 42.1963 62.753 43.2325 62.753 44.4055C62.753 45.5785 62.564 46.6146 62.186 47.5139C61.808 48.4132 61.2737 49.1691 60.5829 49.7817C59.9052 50.3943 59.0841 50.8569 58.1196 51.1697C57.1682 51.4825 56.106 51.6389 54.933 51.6389C53.76 51.6389 52.6913 51.4825 51.7268 51.1697C50.7623 50.8569 49.9347 50.3943 49.244 49.7817C48.5662 49.1691 48.0384 48.4132 47.6604 47.5139C47.2955 46.6146 47.113 45.5785 47.113 44.4055C47.113 43.2325 47.2955 42.1963 47.6604 41.297C48.0384 40.3977 48.5662 39.6418 49.244 39.0292C49.9347 38.4167 50.7623 37.954 51.7268 37.6412C52.6913 37.3284 53.76 37.172 54.933 37.172Z" fill="white"/>
<path d="M74.8815 51.2479H72.1445V45.0897C72.1445 44.1513 71.9099 43.4801 71.4407 43.0761C70.9715 42.659 70.2938 42.4505 69.4076 42.4505H66.8661V51.2479H64.1291V41.082H69.4076C71.2713 41.082 72.6463 41.4208 73.5326 42.0986C74.4319 42.7633 74.8815 43.7603 74.8815 45.0897V51.2479Z" fill="white"/>
<path d="M89.2423 47.6312C89.2423 48.1916 89.125 48.7195 88.8904 49.2147C88.6558 49.697 88.2714 50.1206 87.737 50.4855C87.2157 50.8374 86.5314 51.1176 85.6842 51.3261C84.8501 51.5347 83.8205 51.6389 82.5954 51.6389C81.9046 51.6389 81.2269 51.5868 80.5622 51.4825C79.9105 51.3783 79.2849 51.2284 78.6854 51.0329C78.0989 50.8374 77.5515 50.6028 77.0432 50.3291C76.5479 50.0424 76.1178 49.7296 75.7529 49.3907L76.7304 48.2177C77.4733 48.8563 78.34 49.3451 79.3305 49.6839C80.3211 50.0098 81.4093 50.1727 82.5954 50.1727C83.9117 50.1727 84.8436 49.9902 85.391 49.6253C85.9384 49.2604 86.2121 48.7586 86.2121 48.12C86.2121 47.6247 85.997 47.2076 85.5669 46.8688C85.1368 46.5299 84.407 46.1975 83.3774 45.8717L79.6629 44.6987C78.4377 44.3077 77.5124 43.8125 76.8868 43.2129C76.2612 42.6004 75.9484 41.8249 75.9484 40.8865C75.9484 40.4043 76.0592 39.9416 76.2807 39.4984C76.5153 39.0423 76.8737 38.6448 77.356 38.3059C77.8382 37.954 78.4508 37.6803 79.1937 37.4848C79.9496 37.2763 80.8554 37.172 81.9111 37.172C82.5497 37.172 83.1819 37.2241 83.8075 37.3284C84.4461 37.4327 85.0521 37.5825 85.6256 37.778C86.2121 37.9735 86.753 38.2147 87.2482 38.5014C87.7565 38.7751 88.1932 39.0814 88.5581 39.4202L87.5806 40.5932C86.8377 39.9546 86.0036 39.4724 85.0782 39.1465C84.1528 38.8077 83.0971 38.6382 81.9111 38.6382C80.9336 38.6382 80.1972 38.8077 79.702 39.1465C79.2197 39.4854 78.9786 39.9025 78.9786 40.3977C78.9786 40.6714 79.0242 40.9125 79.1155 41.1211C79.2067 41.3166 79.3566 41.5056 79.5651 41.688C79.7867 41.8575 80.0734 42.0204 80.4253 42.1768C80.7772 42.3201 81.2138 42.4765 81.7352 42.646L85.4301 43.819C86.6161 44.1969 87.548 44.6922 88.2257 45.3048C88.9035 45.9173 89.2423 46.6928 89.2423 47.6312Z" fill="white"/>
<path d="M92.4681 48.0222C92.4681 49.2604 93.2175 49.8794 94.7163 49.8794H97.4533V46.165H94.7163C93.2175 46.165 92.4681 46.784 92.4681 48.0222ZM97.4533 44.7965C97.4533 43.8581 97.2057 43.1673 96.7104 42.7242C96.2282 42.281 95.5961 42.0595 94.8141 42.0595C94.2276 42.0595 93.6541 42.1507 93.0937 42.3332C92.5332 42.5026 92.0314 42.7372 91.5883 43.037L90.9041 41.864C91.1908 41.6685 91.5036 41.499 91.8425 41.3557C92.1944 41.2123 92.5528 41.095 92.9177 41.0038C93.2826 40.8995 93.6411 40.8213 93.993 40.7692C94.3579 40.717 94.6968 40.691 95.0096 40.691C95.8437 40.691 96.5801 40.7887 97.2187 40.9842C97.8573 41.1797 98.3982 41.4599 98.8413 41.8249C99.2845 42.1898 99.6168 42.6264 99.8384 43.1347C100.073 43.63 100.19 44.1839 100.19 44.7965V51.2479H94.7163C92.9438 51.2479 91.6339 50.9808 90.7868 50.4464C89.9526 49.912 89.5356 49.104 89.5356 48.0222C89.5356 46.9404 89.9526 46.1324 90.7868 45.598C91.6339 45.0636 92.9438 44.7965 94.7163 44.7965H97.4533Z" fill="white"/>
<path d="M104.678 51.2479H101.941V41.2775H104.678V51.2479ZM104.775 38.6382C104.775 39.0292 104.638 39.3746 104.365 39.6744C104.104 39.9611 103.752 40.1045 103.309 40.1045C102.866 40.1045 102.508 39.9611 102.234 39.6744C101.973 39.3746 101.843 39.0292 101.843 38.6382C101.843 38.2472 101.973 37.9084 102.234 37.6216C102.508 37.3219 102.866 37.172 103.309 37.172C103.739 37.172 104.091 37.3219 104.365 37.6216C104.638 37.9084 104.775 38.2472 104.775 38.6382Z" fill="white"/>
<path d="M109.273 51.2479H106.536V37.563H109.273V51.2479Z" fill="white"/>
<path d="M48.5597 54.7397L49.1315 55.7238L49.7087 54.7397H49.9694L49.2512 55.9392V56.6281H49.0119V55.9339L48.2964 54.7397H48.5597Z" fill="white"/>
<path d="M50.9999 56.6547C50.9343 56.6547 50.8731 56.644 50.8164 56.6227C50.7596 56.5997 50.71 56.5687 50.6674 56.5297C50.6266 56.4906 50.5938 56.4454 50.569 56.394C50.546 56.3408 50.5344 56.2832 50.5344 56.2211C50.5344 56.1573 50.5486 56.0997 50.577 56.0482C50.6054 55.9951 50.6453 55.9498 50.6967 55.9126C50.7499 55.8754 50.8119 55.8461 50.8829 55.8248C50.9556 55.8036 51.0345 55.7929 51.1196 55.7929C51.187 55.7929 51.2552 55.7991 51.3244 55.8115C51.3935 55.8239 51.4547 55.8408 51.5079 55.8621V55.7504C51.5079 55.6369 51.476 55.5482 51.4121 55.4844C51.3483 55.4188 51.2579 55.386 51.1408 55.386C51.0008 55.386 50.8536 55.4401 50.6993 55.5482L50.6222 55.3966C50.8013 55.276 50.9813 55.2157 51.1621 55.2157C51.3448 55.2157 51.4866 55.2645 51.5877 55.362C51.6905 55.4596 51.7419 55.597 51.7419 55.7743V56.3408C51.7419 56.3958 51.7668 56.4242 51.8164 56.4259V56.6281C51.7916 56.6316 51.7712 56.6343 51.7552 56.636C51.7393 56.6378 51.7224 56.6387 51.7047 56.6387C51.6586 56.6387 51.6214 56.6254 51.593 56.5988C51.5664 56.5704 51.5504 56.5368 51.5451 56.4977L51.5398 56.3993C51.4777 56.4827 51.3988 56.5465 51.3031 56.5908C51.2091 56.6334 51.108 56.6547 50.9999 56.6547ZM51.0611 56.4791C51.1444 56.4791 51.2215 56.4641 51.2925 56.4339C51.3652 56.402 51.4201 56.3603 51.4574 56.3089C51.491 56.2752 51.5079 56.2406 51.5079 56.2052V56.0004C51.3944 55.956 51.2765 55.9339 51.1541 55.9339C51.0371 55.9339 50.9414 55.9587 50.8669 56.0084C50.7942 56.058 50.7578 56.1227 50.7578 56.2025C50.7578 56.2415 50.7649 56.2779 50.7791 56.3116C50.7951 56.3453 50.8164 56.3745 50.843 56.3993C50.8713 56.4242 50.9041 56.4437 50.9414 56.4578C50.9786 56.472 51.0185 56.4791 51.0611 56.4791Z" fill="white"/>
<path d="M52.7146 55.9312C52.7146 55.8337 52.7315 55.7415 52.7652 55.6546C52.7989 55.5677 52.8467 55.4924 52.9088 55.4285C52.9709 55.3629 53.0444 55.3115 53.1296 55.2743C53.2164 55.2353 53.3131 55.2157 53.4195 55.2157C53.5578 55.2157 53.6766 55.2468 53.7759 55.3088C53.8769 55.3691 53.9532 55.4507 54.0046 55.5535L53.7759 55.6253C53.7404 55.5597 53.6908 55.5092 53.6269 55.4737C53.5631 55.4365 53.4922 55.4179 53.4142 55.4179C53.3503 55.4179 53.29 55.4312 53.2333 55.4578C53.1765 55.4826 53.1278 55.5181 53.087 55.5642C53.0462 55.6103 53.0134 55.6644 52.9886 55.7264C52.9655 55.7885 52.954 55.8567 52.954 55.9312C52.954 56.0039 52.9664 56.0722 52.9913 56.136C53.0161 56.1999 53.0489 56.2557 53.0897 56.3036C53.1322 56.3497 53.181 56.386 53.236 56.4126C53.2927 56.4392 53.353 56.4525 53.4168 56.4525C53.4576 56.4525 53.4975 56.4472 53.5365 56.4366C53.5773 56.4242 53.6136 56.4082 53.6455 56.3887C53.6792 56.3692 53.7085 56.347 53.7333 56.3222C53.7581 56.2956 53.7759 56.2672 53.7865 56.2371L54.0153 56.3062C53.994 56.3577 53.9638 56.4047 53.9248 56.4472C53.8876 56.4898 53.8433 56.5261 53.7918 56.5563C53.7404 56.5864 53.6828 56.6103 53.619 56.6281C53.5569 56.6458 53.4913 56.6547 53.4221 56.6547C53.3175 56.6547 53.2218 56.6352 53.1349 56.5962C53.048 56.5571 52.9735 56.5048 52.9115 56.4392C52.8494 56.3736 52.8006 56.2974 52.7652 56.2105C52.7315 56.1218 52.7146 56.0287 52.7146 55.9312Z" fill="white"/>
<path d="M56.1768 56.6281H55.9428V55.8514C55.9428 55.7078 55.918 55.6014 55.8683 55.5323C55.8187 55.4613 55.746 55.4259 55.6502 55.4259C55.6041 55.4259 55.558 55.4356 55.5119 55.4551C55.4658 55.4729 55.4224 55.4977 55.3816 55.5296C55.3426 55.5615 55.3071 55.5996 55.2752 55.644C55.2451 55.6883 55.222 55.7371 55.206 55.7903V56.6281H54.972V54.6865H55.206V55.5376C55.261 55.4365 55.3355 55.3576 55.4295 55.3009C55.5234 55.2441 55.6263 55.2157 55.738 55.2157C55.8196 55.2157 55.8887 55.2308 55.9455 55.261C56.0022 55.2911 56.0474 55.3319 56.0811 55.3833C56.1148 55.4347 56.1387 55.4968 56.1529 55.5695C56.1689 55.6404 56.1768 55.7167 56.1768 55.7982V56.6281Z" fill="white"/>
<path d="M57.9375 56.5589C57.9233 56.566 57.9047 56.5749 57.8816 56.5855C57.8586 56.5944 57.832 56.6041 57.8018 56.6148C57.7735 56.6236 57.7416 56.6307 57.7061 56.636C57.6724 56.6431 57.6369 56.6467 57.5997 56.6467C57.5146 56.6467 57.441 56.6236 57.3789 56.5775C57.3169 56.5297 57.2859 56.4561 57.2859 56.3568V55.4232H57.097V55.2397H57.2859V54.7769H57.5199V55.2397H57.8311V55.4232H57.5199V56.285C57.5235 56.3364 57.5403 56.3736 57.5704 56.3967C57.6006 56.4197 57.6361 56.4312 57.6768 56.4312C57.7229 56.4312 57.7646 56.4242 57.8018 56.41C57.8409 56.394 57.8674 56.3816 57.8816 56.3727L57.9375 56.5589Z" fill="white"/>
<path d="M60.1171 55.9312C60.1171 55.8337 60.134 55.7415 60.1677 55.6546C60.2013 55.5677 60.2492 55.4924 60.3113 55.4285C60.3733 55.3629 60.4469 55.3115 60.532 55.2743C60.6189 55.2353 60.7156 55.2157 60.822 55.2157C60.9603 55.2157 61.0791 55.2468 61.1784 55.3088C61.2794 55.3691 61.3557 55.4507 61.4071 55.5535L61.1784 55.6253C61.1429 55.5597 61.0932 55.5092 61.0294 55.4737C60.9656 55.4365 60.8947 55.4179 60.8166 55.4179C60.7528 55.4179 60.6925 55.4312 60.6358 55.4578C60.579 55.4826 60.5303 55.5181 60.4895 55.5642C60.4487 55.6103 60.4159 55.6644 60.3911 55.7264C60.368 55.7885 60.3565 55.8567 60.3565 55.9312C60.3565 56.0039 60.3689 56.0722 60.3937 56.136C60.4186 56.1999 60.4514 56.2557 60.4921 56.3036C60.5347 56.3497 60.5835 56.386 60.6384 56.4126C60.6952 56.4392 60.7555 56.4525 60.8193 56.4525C60.8601 56.4525 60.9 56.4472 60.939 56.4366C60.9798 56.4242 61.0161 56.4082 61.048 56.3887C61.0817 56.3692 61.111 56.347 61.1358 56.3222C61.1606 56.2956 61.1784 56.2672 61.189 56.2371L61.4177 56.3062C61.3965 56.3577 61.3663 56.4047 61.3273 56.4472C61.2901 56.4898 61.2457 56.5261 61.1943 56.5563C61.1429 56.5864 61.0853 56.6103 61.0214 56.6281C60.9594 56.6458 60.8938 56.6547 60.8246 56.6547C60.72 56.6547 60.6242 56.6352 60.5374 56.5962C60.4505 56.5571 60.376 56.5048 60.3139 56.4392C60.2519 56.3736 60.2031 56.2974 60.1677 56.2105C60.134 56.1218 60.1171 56.0287 60.1171 55.9312Z" fill="white"/>
<path d="M63.5793 56.6281H63.3453V55.8514C63.3453 55.7078 63.3204 55.6014 63.2708 55.5323C63.2212 55.4613 63.1485 55.4259 63.0527 55.4259C63.0066 55.4259 62.9605 55.4356 62.9144 55.4551C62.8683 55.4729 62.8248 55.4977 62.7841 55.5296C62.7451 55.5615 62.7096 55.5996 62.6777 55.644C62.6475 55.6883 62.6245 55.7371 62.6085 55.7903V56.6281H62.3745V54.6865H62.6085V55.5376C62.6635 55.4365 62.738 55.3576 62.8319 55.3009C62.9259 55.2441 63.0288 55.2157 63.1405 55.2157C63.222 55.2157 63.2912 55.2308 63.3479 55.261C63.4047 55.2911 63.4499 55.3319 63.4836 55.3833C63.5173 55.4347 63.5412 55.4968 63.5554 55.5695C63.5713 55.6404 63.5793 55.7167 63.5793 55.7982V56.6281Z" fill="white"/>
<path d="M64.9912 56.6547C64.9256 56.6547 64.8645 56.644 64.8077 56.6227C64.751 56.5997 64.7013 56.5687 64.6588 56.5297C64.618 56.4906 64.5852 56.4454 64.5604 56.394C64.5373 56.3408 64.5258 56.2832 64.5258 56.2211C64.5258 56.1573 64.54 56.0997 64.5683 56.0482C64.5967 55.9951 64.6366 55.9498 64.688 55.9126C64.7412 55.8754 64.8033 55.8461 64.8742 55.8248C64.9469 55.8036 65.0258 55.7929 65.1109 55.7929C65.1783 55.7929 65.2466 55.7991 65.3157 55.8115C65.3849 55.8239 65.446 55.8408 65.4992 55.8621V55.7504C65.4992 55.6369 65.4673 55.5482 65.4035 55.4844C65.3397 55.4188 65.2492 55.386 65.1322 55.386C64.9921 55.386 64.8449 55.4401 64.6907 55.5482L64.6135 55.3966C64.7926 55.276 64.9726 55.2157 65.1535 55.2157C65.3361 55.2157 65.478 55.2645 65.579 55.362C65.6819 55.4596 65.7333 55.597 65.7333 55.7743V56.3408C65.7333 56.3958 65.7581 56.4242 65.8078 56.4259V56.6281C65.7829 56.6316 65.7626 56.6343 65.7466 56.636C65.7306 56.6378 65.7138 56.6387 65.6961 56.6387C65.65 56.6387 65.6127 56.6254 65.5844 56.5988C65.5578 56.5704 65.5418 56.5368 65.5365 56.4977L65.5312 56.3993C65.4691 56.4827 65.3902 56.5465 65.2944 56.5908C65.2005 56.6334 65.0994 56.6547 64.9912 56.6547ZM65.0524 56.4791C65.1357 56.4791 65.2129 56.4641 65.2838 56.4339C65.3565 56.402 65.4115 56.3603 65.4487 56.3089C65.4824 56.2752 65.4992 56.2406 65.4992 56.2052V56.0004C65.3858 55.956 65.2678 55.9339 65.1455 55.9339C65.0285 55.9339 64.9327 55.9587 64.8582 56.0084C64.7855 56.058 64.7492 56.1227 64.7492 56.2025C64.7492 56.2415 64.7563 56.2779 64.7705 56.3116C64.7864 56.3453 64.8077 56.3745 64.8343 56.3993C64.8627 56.4242 64.8955 56.4437 64.9327 56.4578C64.97 56.472 65.0098 56.4791 65.0524 56.4791Z" fill="white"/>
<path d="M67.5332 55.4445C67.4161 55.448 67.3124 55.4782 67.222 55.5349C67.1333 55.5917 67.0704 55.6706 67.0331 55.7716V56.6281H66.7991V55.2397H67.0172V55.5615C67.0651 55.4658 67.128 55.3886 67.206 55.3301C67.284 55.2698 67.3674 55.2361 67.456 55.229C67.4738 55.229 67.4888 55.229 67.5013 55.229C67.5137 55.229 67.5243 55.2299 67.5332 55.2317V55.4445Z" fill="white"/>
<path d="M69.175 56.5589C69.1608 56.566 69.1422 56.5749 69.1191 56.5855C69.0961 56.5944 69.0695 56.6041 69.0393 56.6148C69.011 56.6236 68.979 56.6307 68.9436 56.636C68.9099 56.6431 68.8744 56.6467 68.8372 56.6467C68.7521 56.6467 68.6785 56.6236 68.6164 56.5775C68.5544 56.5297 68.5233 56.4561 68.5233 56.3568V55.4232H68.3345V55.2397H68.5233V54.7769H68.7574V55.2397H69.0686V55.4232H68.7574V56.285C68.7609 56.3364 68.7778 56.3736 68.8079 56.3967C68.8381 56.4197 68.8735 56.4312 68.9143 56.4312C68.9604 56.4312 69.0021 56.4242 69.0393 56.41C69.0783 56.394 69.1049 56.3816 69.1191 56.3727L69.175 56.5589Z" fill="white"/>
<path d="M70.6797 56.6547C70.575 56.6547 70.4793 56.636 70.3924 56.5988C70.3055 56.5598 70.231 56.5075 70.169 56.4419C70.1069 56.3763 70.0582 56.3 70.0227 56.2132C69.989 56.1245 69.9722 56.0314 69.9722 55.9339C69.9722 55.8364 69.989 55.7442 70.0227 55.6573C70.0582 55.5704 70.1069 55.4941 70.169 55.4285C70.2328 55.3629 70.3082 55.3115 70.3951 55.2743C70.4819 55.2353 70.5777 55.2157 70.6823 55.2157C70.7869 55.2157 70.8818 55.2353 70.9669 55.2743C71.0538 55.3133 71.1274 55.3656 71.1877 55.4312C71.248 55.495 71.2941 55.5704 71.326 55.6573C71.3597 55.7424 71.3765 55.831 71.3765 55.9232C71.3765 55.9427 71.3756 55.9605 71.3738 55.9764C71.3738 55.9924 71.373 56.0048 71.3712 56.0137H70.2195C70.2248 56.0828 70.2408 56.1458 70.2674 56.2025C70.294 56.2593 70.3286 56.308 70.3711 56.3488C70.4137 56.3896 70.4616 56.4215 70.5148 56.4445C70.5697 56.4676 70.6273 56.4791 70.6876 56.4791C70.7302 56.4791 70.7719 56.4738 70.8126 56.4632C70.8534 56.4508 70.8915 56.4348 70.927 56.4153C70.9625 56.3958 70.9935 56.3718 71.0201 56.3435C71.0485 56.3151 71.0697 56.2832 71.0839 56.2477L71.2861 56.3036C71.263 56.355 71.2311 56.402 71.1903 56.4445C71.1513 56.4871 71.1052 56.5243 71.052 56.5563C71.0006 56.5864 70.943 56.6103 70.8791 56.6281C70.8153 56.6458 70.7488 56.6547 70.6797 56.6547ZM71.1557 55.8408C71.1504 55.7752 71.1336 55.7149 71.1052 55.6599C71.0786 55.6032 71.044 55.5553 71.0015 55.5163C70.9607 55.4773 70.9128 55.4471 70.8579 55.4259C70.8029 55.4028 70.7444 55.3913 70.6823 55.3913C70.6203 55.3913 70.5617 55.4028 70.5068 55.4259C70.4518 55.4471 70.403 55.4782 70.3605 55.519C70.3197 55.558 70.286 55.605 70.2594 55.6599C70.2346 55.7149 70.2195 55.7752 70.2142 55.8408H71.1557Z" fill="white"/>
<path d="M73.0623 55.4445C72.9453 55.448 72.8415 55.4782 72.7511 55.5349C72.6625 55.5917 72.5995 55.6706 72.5623 55.7716V56.6281H72.3282V55.2397H72.5463V55.5615C72.5942 55.4658 72.6571 55.3886 72.7352 55.3301C72.8132 55.2698 72.8965 55.2361 72.9852 55.229C73.0029 55.229 73.018 55.229 73.0304 55.229C73.0428 55.229 73.0534 55.2299 73.0623 55.2317V55.4445Z" fill="white"/>
<path d="M74.4727 56.6547C74.361 56.6547 74.2511 56.6378 74.1429 56.6041C74.0347 56.5687 73.9416 56.5181 73.8636 56.4525L73.9647 56.2956C74.0463 56.3577 74.1278 56.4047 74.2094 56.4366C74.291 56.4667 74.377 56.4818 74.4674 56.4818C74.5685 56.4818 74.6483 56.4623 74.7068 56.4233C74.7671 56.3825 74.7972 56.3257 74.7972 56.253C74.7972 56.2194 74.7892 56.191 74.7733 56.1679C74.7573 56.1431 74.7334 56.1218 74.7014 56.1041C74.6695 56.0864 74.6287 56.0704 74.5791 56.0562C74.5294 56.042 74.4718 56.027 74.4062 56.011C74.3229 55.9897 74.2511 55.9693 74.1908 55.9498C74.1305 55.9303 74.0808 55.9073 74.0418 55.8807C74.0028 55.8541 73.9744 55.8222 73.9567 55.7849C73.939 55.7477 73.9301 55.7016 73.9301 55.6466C73.9301 55.5775 73.9434 55.5163 73.97 55.4631C73.9984 55.4081 74.0365 55.3629 74.0844 55.3275C74.1323 55.2902 74.1881 55.2627 74.2519 55.245C74.3176 55.2255 74.3876 55.2157 74.4621 55.2157C74.5667 55.2157 74.6642 55.2326 74.7546 55.2663C74.8451 55.3 74.9213 55.3443 74.9834 55.3993L74.877 55.5402C74.8185 55.4888 74.7529 55.4507 74.6802 55.4259C74.6075 55.3993 74.533 55.386 74.4567 55.386C74.3716 55.386 74.2989 55.4046 74.2387 55.4418C74.1801 55.4773 74.1509 55.5349 74.1509 55.6147C74.1509 55.6466 74.1562 55.6732 74.1668 55.6945C74.1793 55.7158 74.1988 55.7344 74.2254 55.7504C74.2519 55.7663 74.2856 55.7805 74.3264 55.7929C74.369 55.8053 74.4195 55.8186 74.478 55.8328C74.5702 55.8541 74.65 55.8763 74.7174 55.8993C74.7866 55.9206 74.8433 55.9463 74.8876 55.9764C74.9337 56.0066 74.9674 56.042 74.9887 56.0828C75.0117 56.1236 75.0233 56.1733 75.0233 56.2318C75.0233 56.3612 74.9736 56.4641 74.8743 56.5403C74.775 56.6165 74.6412 56.6547 74.4727 56.6547Z" fill="white"/>
<path d="M77.7125 56.6547C77.6468 56.6547 77.5857 56.644 77.5289 56.6227C77.4722 56.5997 77.4225 56.5687 77.38 56.5297C77.3392 56.4906 77.3064 56.4454 77.2816 56.394C77.2585 56.3408 77.247 56.2832 77.247 56.2211C77.247 56.1573 77.2612 56.0997 77.2896 56.0482C77.3179 55.9951 77.3578 55.9498 77.4092 55.9126C77.4624 55.8754 77.5245 55.8461 77.5954 55.8248C77.6681 55.8036 77.747 55.7929 77.8321 55.7929C77.8995 55.7929 77.9678 55.7991 78.0369 55.8115C78.1061 55.8239 78.1673 55.8408 78.2205 55.8621V55.7504C78.2205 55.6369 78.1885 55.5482 78.1247 55.4844C78.0609 55.4188 77.9704 55.386 77.8534 55.386C77.7133 55.386 77.5662 55.4401 77.4119 55.5482L77.3348 55.3966C77.5139 55.276 77.6938 55.2157 77.8747 55.2157C78.0573 55.2157 78.1992 55.2645 78.3003 55.362C78.4031 55.4596 78.4545 55.597 78.4545 55.7743V56.3408C78.4545 56.3958 78.4793 56.4242 78.529 56.4259V56.6281C78.5042 56.6316 78.4838 56.6343 78.4678 56.636C78.4519 56.6378 78.435 56.6387 78.4173 56.6387C78.3712 56.6387 78.3339 56.6254 78.3056 56.5988C78.279 56.5704 78.263 56.5368 78.2577 56.4977L78.2524 56.3993C78.1903 56.4827 78.1114 56.5465 78.0157 56.5908C77.9217 56.6334 77.8206 56.6547 77.7125 56.6547ZM77.7736 56.4791C77.857 56.4791 77.9341 56.4641 78.005 56.4339C78.0777 56.402 78.1327 56.3603 78.1699 56.3089C78.2036 56.2752 78.2205 56.2406 78.2205 56.2052V56.0004C78.107 55.956 77.9891 55.9339 77.8667 55.9339C77.7497 55.9339 77.6539 55.9587 77.5795 56.0084C77.5068 56.058 77.4704 56.1227 77.4704 56.2025C77.4704 56.2415 77.4775 56.2779 77.4917 56.3116C77.5077 56.3453 77.5289 56.3745 77.5555 56.3993C77.5839 56.4242 77.6167 56.4437 77.6539 56.4578C77.6912 56.472 77.7311 56.4791 77.7736 56.4791Z" fill="white"/>
<path d="M80.2544 55.4445C80.1374 55.448 80.0336 55.4782 79.9432 55.5349C79.8545 55.5917 79.7916 55.6706 79.7544 55.7716V56.6281H79.5203V55.2397H79.7384V55.5615C79.7863 55.4658 79.8492 55.3886 79.9272 55.3301C80.0053 55.2698 80.0886 55.2361 80.1773 55.229C80.195 55.229 80.2101 55.229 80.2225 55.229C80.2349 55.229 80.2455 55.2299 80.2544 55.2317V55.4445Z" fill="white"/>
<path d="M81.7533 56.6547C81.6487 56.6547 81.5529 56.6352 81.4661 56.5962C81.381 56.5571 81.3074 56.5048 81.2453 56.4392C81.185 56.3736 81.138 56.2974 81.1043 56.2105C81.0706 56.1236 81.0538 56.0323 81.0538 55.9365C81.0538 55.839 81.0706 55.7468 81.1043 55.6599C81.1398 55.573 81.1877 55.4968 81.248 55.4312C81.31 55.3656 81.3836 55.3133 81.4687 55.2743C81.5556 55.2353 81.6505 55.2157 81.7533 55.2157C81.8562 55.2157 81.951 55.2353 82.0379 55.2743C82.1248 55.3133 82.1984 55.3656 82.2587 55.4312C82.3207 55.4968 82.3686 55.573 82.4023 55.6599C82.4378 55.7468 82.4555 55.839 82.4555 55.9365C82.4555 56.0323 82.4386 56.1236 82.405 56.2105C82.3713 56.2974 82.3234 56.3736 82.2613 56.4392C82.1993 56.5048 82.1248 56.5571 82.0379 56.5962C81.9528 56.6352 81.8579 56.6547 81.7533 56.6547ZM81.2932 55.9392C81.2932 56.0119 81.3047 56.0793 81.3278 56.1413C81.3526 56.2034 81.3854 56.2575 81.4262 56.3036C81.4687 56.3497 81.5175 56.386 81.5725 56.4126C81.6292 56.4392 81.6895 56.4525 81.7533 56.4525C81.8172 56.4525 81.8766 56.4392 81.9315 56.4126C81.9883 56.386 82.0379 56.3497 82.0805 56.3036C82.123 56.2557 82.1558 56.2007 82.1789 56.1387C82.2037 56.0748 82.2161 56.0066 82.2161 55.9339C82.2161 55.863 82.2037 55.7965 82.1789 55.7344C82.1558 55.6706 82.123 55.6156 82.0805 55.5695C82.0379 55.5216 81.9883 55.4844 81.9315 55.4578C81.8766 55.4312 81.8172 55.4179 81.7533 55.4179C81.6895 55.4179 81.6292 55.4321 81.5725 55.4604C81.5175 55.487 81.4687 55.5243 81.4262 55.5722C81.3854 55.6183 81.3526 55.6732 81.3278 55.7371C81.3047 55.7991 81.2932 55.8665 81.2932 55.9392Z" fill="white"/>
<path d="M83.8588 56.6547C83.7135 56.6547 83.6035 56.6059 83.529 56.5084C83.4546 56.4109 83.4173 56.2655 83.4173 56.0722V55.2397H83.6514V56.027C83.6514 56.3107 83.7498 56.4525 83.9466 56.4525C84.0424 56.4525 84.1319 56.4224 84.2153 56.3621C84.3004 56.3 84.3633 56.2158 84.4041 56.1094V55.2397H84.6382V56.3408C84.6382 56.3958 84.663 56.4242 84.7126 56.4259V56.6281C84.686 56.6316 84.6647 56.6334 84.6488 56.6334C84.6346 56.6352 84.6204 56.636 84.6062 56.636C84.5601 56.636 84.5211 56.6227 84.4892 56.5962C84.4591 56.5678 84.4431 56.5332 84.4413 56.4924L84.436 56.3302C84.374 56.4348 84.2924 56.5155 84.1913 56.5722C84.0902 56.6272 83.9794 56.6547 83.8588 56.6547Z" fill="white"/>
<path d="M86.9244 56.6281H86.6904V55.8514C86.6904 55.7025 86.6673 55.5943 86.6212 55.5269C86.5769 55.4596 86.5086 55.4259 86.4164 55.4259C86.3685 55.4259 86.3207 55.4356 86.2728 55.4551C86.2249 55.4729 86.1797 55.4977 86.1371 55.5296C86.0946 55.5615 86.0574 55.5996 86.0254 55.644C85.9935 55.6883 85.9696 55.7371 85.9536 55.7903V56.6281H85.7196V55.2397H85.9323V55.5376C85.9873 55.4401 86.0662 55.362 86.1691 55.3035C86.2737 55.245 86.3872 55.2157 86.5095 55.2157C86.5893 55.2157 86.6558 55.2308 86.709 55.261C86.7622 55.2893 86.8047 55.3301 86.8367 55.3833C86.8686 55.4347 86.8907 55.4959 86.9031 55.5668C86.9173 55.6378 86.9244 55.7149 86.9244 55.7982V56.6281Z" fill="white"/>
<path d="M88.5518 56.6547C88.456 56.6547 88.3674 56.6352 88.2858 56.5962C88.2042 56.5571 88.1342 56.5048 88.0757 56.4392C88.0172 56.3736 87.9711 56.2974 87.9374 56.2105C87.9054 56.1236 87.8895 56.0323 87.8895 55.9365C87.8895 55.839 87.9046 55.7468 87.9347 55.6599C87.9666 55.5713 88.0101 55.4941 88.065 55.4285C88.1218 55.3629 88.1883 55.3115 88.2645 55.2743C88.3425 55.2353 88.4276 55.2157 88.5198 55.2157C88.6316 55.2157 88.7309 55.245 88.8177 55.3035C88.9064 55.362 88.9764 55.433 89.0279 55.5163V54.6865H89.2619V56.3408C89.2619 56.3958 89.2867 56.4242 89.3364 56.4259V56.6281C89.3116 56.6316 89.2912 56.6343 89.2752 56.636C89.261 56.6378 89.2468 56.6387 89.2327 56.6387C89.1866 56.6387 89.1458 56.6236 89.1103 56.5935C89.0766 56.5616 89.0598 56.5252 89.0598 56.4844V56.3674C89.0048 56.4578 88.9312 56.5288 88.839 56.5802C88.7486 56.6298 88.6528 56.6547 88.5518 56.6547ZM88.6076 56.4525C88.6502 56.4525 88.6936 56.4445 88.7379 56.4286C88.784 56.4126 88.8266 56.3905 88.8656 56.3621C88.9064 56.3337 88.941 56.3009 88.9693 56.2637C88.9995 56.2247 89.019 56.1839 89.0279 56.1413V55.7424C89.0119 55.698 88.988 55.6564 88.956 55.6174C88.9241 55.5766 88.8878 55.542 88.847 55.5136C88.808 55.4835 88.7654 55.4604 88.7193 55.4445C88.675 55.4268 88.6307 55.4179 88.5863 55.4179C88.5172 55.4179 88.4542 55.433 88.3975 55.4631C88.3425 55.4915 88.2947 55.5305 88.2539 55.5801C88.2149 55.628 88.1847 55.6839 88.1634 55.7477C88.1422 55.8098 88.1315 55.8736 88.1315 55.9392C88.1315 56.0084 88.1439 56.0748 88.1688 56.1387C88.1936 56.2007 88.2273 56.2548 88.2698 56.3009C88.3124 56.347 88.362 56.3843 88.4188 56.4126C88.4773 56.4392 88.5402 56.4525 88.6076 56.4525Z" fill="white"/>
<path d="M92.4266 56.5589C92.4124 56.566 92.3938 56.5749 92.3707 56.5855C92.3477 56.5944 92.3211 56.6041 92.2909 56.6148C92.2625 56.6236 92.2306 56.6307 92.1952 56.636C92.1615 56.6431 92.126 56.6467 92.0888 56.6467C92.0037 56.6467 91.9301 56.6236 91.868 56.5775C91.806 56.5297 91.7749 56.4561 91.7749 56.3568V55.4232H91.5861V55.2397H91.7749V54.7769H92.009V55.2397H92.3202V55.4232H92.009V56.285C92.0125 56.3364 92.0294 56.3736 92.0595 56.3967C92.0897 56.4197 92.1251 56.4312 92.1659 56.4312C92.212 56.4312 92.2537 56.4242 92.2909 56.41C92.3299 56.394 92.3565 56.3816 92.3707 56.3727L92.4266 56.5589Z" fill="white"/>
<path d="M94.5399 56.6281H94.3058V55.8514C94.3058 55.7078 94.281 55.6014 94.2314 55.5323C94.1817 55.4613 94.109 55.4259 94.0133 55.4259C93.9672 55.4259 93.9211 55.4356 93.875 55.4551C93.8289 55.4729 93.7854 55.4977 93.7446 55.5296C93.7056 55.5615 93.6702 55.5996 93.6382 55.644C93.6081 55.6883 93.585 55.7371 93.5691 55.7903V56.6281H93.335V54.6865H93.5691V55.5376C93.6241 55.4365 93.6985 55.3576 93.7925 55.3009C93.8865 55.2441 93.9893 55.2157 94.101 55.2157C94.1826 55.2157 94.2517 55.2308 94.3085 55.261C94.3652 55.2911 94.4104 55.3319 94.4441 55.3833C94.4778 55.4347 94.5018 55.4968 94.5159 55.5695C94.5319 55.6404 94.5399 55.7167 94.5399 55.7982V56.6281Z" fill="white"/>
<path d="M96.2098 56.6547C96.1052 56.6547 96.0094 56.636 95.9225 56.5988C95.8356 56.5598 95.7612 56.5075 95.6991 56.4419C95.6371 56.3763 95.5883 56.3 95.5528 56.2132C95.5191 56.1245 95.5023 56.0314 95.5023 55.9339C95.5023 55.8364 95.5191 55.7442 95.5528 55.6573C95.5883 55.5704 95.6371 55.4941 95.6991 55.4285C95.763 55.3629 95.8383 55.3115 95.9252 55.2743C96.0121 55.2353 96.1078 55.2157 96.2124 55.2157C96.3171 55.2157 96.4119 55.2353 96.497 55.2743C96.5839 55.3133 96.6575 55.3656 96.7178 55.4312C96.7781 55.495 96.8242 55.5704 96.8561 55.6573C96.8898 55.7424 96.9066 55.831 96.9066 55.9232C96.9066 55.9427 96.9057 55.9605 96.904 55.9764C96.904 55.9924 96.9031 56.0048 96.9013 56.0137H95.7497C95.755 56.0828 95.7709 56.1458 95.7975 56.2025C95.8241 56.2593 95.8587 56.308 95.9013 56.3488C95.9438 56.3896 95.9917 56.4215 96.0449 56.4445C96.0998 56.4676 96.1575 56.4791 96.2178 56.4791C96.2603 56.4791 96.302 56.4738 96.3428 56.4632C96.3836 56.4508 96.4217 56.4348 96.4571 56.4153C96.4926 56.3958 96.5236 56.3718 96.5502 56.3435C96.5786 56.3151 96.5999 56.2832 96.6141 56.2477L96.8162 56.3036C96.7932 56.355 96.7612 56.402 96.7205 56.4445C96.6814 56.4871 96.6353 56.5243 96.5821 56.5563C96.5307 56.5864 96.4731 56.6103 96.4093 56.6281C96.3454 56.6458 96.2789 56.6547 96.2098 56.6547ZM96.6859 55.8408C96.6806 55.7752 96.6637 55.7149 96.6353 55.6599C96.6087 55.6032 96.5742 55.5553 96.5316 55.5163C96.4908 55.4773 96.443 55.4471 96.388 55.4259C96.333 55.4028 96.2745 55.3913 96.2124 55.3913C96.1504 55.3913 96.0919 55.4028 96.0369 55.4259C95.9819 55.4471 95.9332 55.4782 95.8906 55.519C95.8498 55.558 95.8161 55.605 95.7895 55.6599C95.7647 55.7149 95.7496 55.7752 95.7443 55.8408H96.6859Z" fill="white"/>
<path d="M100.887 55.2397H101.113L100.522 56.6281H100.328L100.049 55.9498L99.7723 56.6281H99.5782L98.9877 55.2397H99.2111L99.6899 56.3967L99.9239 55.8195L99.6845 55.2423H99.8787L100.049 55.6865L100.219 55.2423H100.413L100.177 55.8195L100.411 56.3967L100.887 55.2397Z" fill="white"/>
<path d="M102.583 56.6547C102.478 56.6547 102.383 56.6352 102.296 56.5962C102.211 56.5571 102.137 56.5048 102.075 56.4392C102.015 56.3736 101.968 56.2974 101.934 56.2105C101.9 56.1236 101.883 56.0323 101.883 55.9365C101.883 55.839 101.9 55.7468 101.934 55.6599C101.969 55.573 102.017 55.4968 102.078 55.4312C102.14 55.3656 102.213 55.3133 102.298 55.2743C102.385 55.2353 102.48 55.2157 102.583 55.2157C102.686 55.2157 102.781 55.2353 102.867 55.2743C102.954 55.3133 103.028 55.3656 103.088 55.4312C103.15 55.4968 103.198 55.573 103.232 55.6599C103.267 55.7468 103.285 55.839 103.285 55.9365C103.285 56.0323 103.268 56.1236 103.235 56.2105C103.201 56.2974 103.153 56.3736 103.091 56.4392C103.029 56.5048 102.954 56.5571 102.867 56.5962C102.782 56.6352 102.688 56.6547 102.583 56.6547ZM102.123 55.9392C102.123 56.0119 102.134 56.0793 102.157 56.1413C102.182 56.2034 102.215 56.2575 102.256 56.3036C102.298 56.3497 102.347 56.386 102.402 56.4126C102.459 56.4392 102.519 56.4525 102.583 56.4525C102.647 56.4525 102.706 56.4392 102.761 56.4126C102.818 56.386 102.867 56.3497 102.91 56.3036C102.953 56.2557 102.985 56.2007 103.008 56.1387C103.033 56.0748 103.046 56.0066 103.046 55.9339C103.046 55.863 103.033 55.7965 103.008 55.7344C102.985 55.6706 102.953 55.6156 102.91 55.5695C102.867 55.5216 102.818 55.4844 102.761 55.4578C102.706 55.4312 102.647 55.4179 102.583 55.4179C102.519 55.4179 102.459 55.4321 102.402 55.4604C102.347 55.487 102.298 55.5243 102.256 55.5722C102.215 55.6183 102.182 55.6732 102.157 55.7371C102.134 55.7991 102.123 55.8665 102.123 55.9392Z" fill="white"/>
<path d="M104.994 55.4445C104.877 55.448 104.774 55.4782 104.683 55.5349C104.594 55.5917 104.531 55.6706 104.494 55.7716V56.6281H104.26V55.2397H104.478V55.5615C104.526 55.4658 104.589 55.3886 104.667 55.3301C104.745 55.2698 104.828 55.2361 104.917 55.229C104.935 55.229 104.95 55.229 104.962 55.229C104.975 55.229 104.985 55.2299 104.994 55.2317V55.4445Z" fill="white"/>
<path d="M105.923 54.6865H106.157V56.269C106.157 56.3204 106.171 56.3612 106.197 56.3914C106.226 56.4197 106.265 56.4339 106.314 56.4339C106.334 56.4339 106.357 56.4312 106.383 56.4259C106.41 56.4188 106.435 56.4109 106.458 56.402L106.495 56.5908C106.456 56.6068 106.41 56.6201 106.357 56.6307C106.304 56.6414 106.257 56.6467 106.216 56.6467C106.125 56.6467 106.054 56.621 106 56.5696C105.949 56.5181 105.923 56.4463 105.923 56.3541V54.6865Z" fill="white"/>
<path d="M107.942 56.6547C107.847 56.6547 107.758 56.6352 107.676 56.5962C107.595 56.5571 107.525 56.5048 107.466 56.4392C107.408 56.3736 107.362 56.2974 107.328 56.2105C107.296 56.1236 107.28 56.0323 107.28 55.9365C107.28 55.839 107.295 55.7468 107.325 55.6599C107.357 55.5713 107.401 55.4941 107.456 55.4285C107.512 55.3629 107.579 55.3115 107.655 55.2743C107.733 55.2353 107.818 55.2157 107.91 55.2157C108.022 55.2157 108.121 55.245 108.208 55.3035C108.297 55.362 108.367 55.433 108.418 55.5163V54.6865H108.653V56.3408C108.653 56.3958 108.677 56.4242 108.727 56.4259V56.6281C108.702 56.6316 108.682 56.6343 108.666 56.636C108.652 56.6378 108.637 56.6387 108.623 56.6387C108.577 56.6387 108.536 56.6236 108.501 56.5935C108.467 56.5616 108.45 56.5252 108.45 56.4844V56.3674C108.395 56.4578 108.322 56.5288 108.23 56.5802C108.139 56.6298 108.043 56.6547 107.942 56.6547ZM107.998 56.4525C108.041 56.4525 108.084 56.4445 108.129 56.4286C108.175 56.4126 108.217 56.3905 108.256 56.3621C108.297 56.3337 108.332 56.3009 108.36 56.2637C108.39 56.2247 108.41 56.1839 108.418 56.1413V55.7424C108.403 55.698 108.379 55.6564 108.347 55.6174C108.315 55.5766 108.278 55.542 108.238 55.5136C108.199 55.4835 108.156 55.4604 108.11 55.4445C108.066 55.4268 108.021 55.4179 107.977 55.4179C107.908 55.4179 107.845 55.433 107.788 55.4631C107.733 55.4915 107.685 55.5305 107.644 55.5801C107.605 55.628 107.575 55.6839 107.554 55.7477C107.533 55.8098 107.522 55.8736 107.522 55.9392C107.522 56.0084 107.535 56.0748 107.559 56.1387C107.584 56.2007 107.618 56.2548 107.66 56.3009C107.703 56.347 107.753 56.3843 107.809 56.4126C107.868 56.4392 107.931 56.4525 107.998 56.4525Z" fill="white"/>
<path d="M33.2616 31.0816C32.899 31.5667 32.5598 32.0517 32.2791 32.6125C32.63 32.1275 33.016 31.7031 33.4137 31.3241C33.6125 31.1119 33.8231 30.9452 34.0336 30.7633L34.0336 30.7633C34.2442 30.5965 34.4547 30.4298 34.677 30.2782C35.5543 29.6719 36.4784 29.1869 37.461 28.8534C38.4201 28.5502 39.391 28.3683 40.3619 28.3077H41.0988H41.4614C41.5784 28.3077 41.7071 28.3229 41.824 28.3229C42.3036 28.3532 42.7949 28.429 43.2745 28.5048C43.7541 28.5957 44.222 28.717 44.6899 28.8686C45.1578 29.0201 45.614 29.202 46.0585 29.4294C46.9592 29.8841 47.8014 30.4601 48.6787 31.1119C49.5443 31.7485 50.4683 32.4458 51.5094 32.9309C52.0241 33.1734 52.5622 33.3553 53.1119 33.4765C53.6617 33.5978 54.1647 33.6584 54.7145 33.6584C55.2642 33.6584 55.814 33.5978 56.3638 33.4765C56.9135 33.3553 57.4516 33.1734 57.9663 32.9309C58.9957 32.4458 59.9197 31.7485 60.797 31.1119C61.6743 30.4601 62.5282 29.869 63.4172 29.4294C63.8617 29.2172 64.3179 29.0201 64.7858 28.8686C65.2537 28.717 65.7216 28.5957 66.2012 28.5048C66.6808 28.429 67.1604 28.3532 67.6517 28.3229C67.7686 28.3229 67.8973 28.3077 68.0143 28.3077H68.3769H69.1138C70.0964 28.3683 71.0673 28.5351 72.0147 28.8534C72.9622 29.1717 73.8863 29.6568 74.7636 30.2631C74.9859 30.4147 75.1964 30.5814 75.407 30.7481C75.6175 30.93 75.8281 31.1119 76.0269 31.309C76.4363 31.7031 76.8223 32.1275 77.1732 32.5974C76.8925 32.0365 76.5533 31.5363 76.1907 31.0664C76.0035 30.8239 75.8047 30.6117 75.6175 30.3843C75.4187 30.1721 75.2198 29.9599 75.0093 29.7629C74.167 28.9747 73.243 28.338 72.2604 27.853C71.2778 27.3831 70.2485 27.0799 69.2074 26.898C68.9501 26.8677 68.681 26.8526 68.4237 26.8222L68.026 26.7919C67.8856 26.7768 67.7569 26.7768 67.6283 26.7768C67.1019 26.7616 66.5755 26.7919 66.0491 26.8374C65.5228 26.898 64.9964 26.989 64.47 27.1254C63.9553 27.277 63.4289 27.4589 62.926 27.6711C61.9083 28.0955 60.9491 28.717 60.0484 29.3384C59.1477 29.9599 58.2938 30.5662 57.4165 30.9452C56.5392 31.3544 55.6502 31.5381 54.7145 31.5381C53.7787 31.5381 52.9131 31.3544 52.0358 30.9603C51.1585 30.5814 50.3046 29.9751 49.4039 29.3536C48.5032 28.7473 47.544 28.1258 46.5264 27.6862C46.0234 27.4589 45.5087 27.277 44.9823 27.1406C44.4559 27.0041 43.9296 26.9132 43.4032 26.8526C42.8768 26.8071 42.3504 26.7768 41.824 26.7919C41.6837 26.8071 41.555 26.7919 41.4263 26.8071L41.0286 26.8374C40.7713 26.8526 40.5022 26.8829 40.2449 26.9132C39.2038 27.0951 38.1745 27.3982 37.1919 27.8681C36.2093 28.3532 35.2853 28.9898 34.4431 29.778C34.2325 29.9751 34.0336 30.1873 33.8348 30.3995C33.6359 30.6269 33.4371 30.8391 33.2616 31.0816Z" fill="white"/>
<path fill-rule="evenodd" clip-rule="evenodd" d="M58.9659 26.3013C58.6552 24.2747 56.9042 22.7225 54.7906 22.7225C52.6456 22.7225 50.874 24.3212 50.6024 26.3921C50.2656 26.1743 49.9267 25.94 49.5814 25.7013C49.5224 25.6606 49.4632 25.6197 49.4039 25.5787C48.5032 24.9724 47.544 24.3509 46.5264 23.9113C46.0234 23.684 45.5087 23.5021 44.9823 23.3656C44.4559 23.2292 43.9296 23.1383 43.4032 23.0776C42.8768 23.0322 42.3504 23.0019 41.824 23.017C41.7539 23.0246 41.6866 23.0246 41.6208 23.0246C41.555 23.0246 41.4907 23.0246 41.4263 23.0322L41.0286 23.0625C40.7713 23.0776 40.5022 23.108 40.2449 23.1383C39.2038 23.3202 38.1745 23.6233 37.1919 24.0932C36.2093 24.5783 35.2853 25.2149 34.4431 26.0031C34.2325 26.2002 34.0336 26.4124 33.8348 26.6246C33.7928 26.6726 33.7509 26.7199 33.7092 26.7669C33.5531 26.9428 33.4001 27.1153 33.2616 27.3067C32.899 27.7917 32.5598 28.2768 32.2791 28.8376C32.63 28.3526 33.016 27.9282 33.4137 27.5492C33.5698 27.3826 33.7332 27.244 33.8981 27.1041M51.9504 27.1478C51.9788 27.1606 52.0073 27.1731 52.0358 27.1854C52.9058 27.5762 53.7987 27.7584 54.7262 27.7614C55.6536 27.7584 56.5465 27.5761 57.4165 27.1703C57.4896 27.1387 57.5624 27.1056 57.6352 27.071C57.6369 27.0298 57.6378 26.9884 57.6378 26.9468C57.6378 25.3743 56.3631 24.0996 54.7906 24.0996C53.2182 24.0996 51.9434 25.3743 51.9434 26.9468C51.9434 27.0144 51.9458 27.0814 51.9504 27.1478ZM58.9659 26.3013C59.2645 26.1053 59.5653 25.8974 59.8709 25.6862C59.9299 25.6454 59.989 25.6045 60.0484 25.5635C60.9491 24.9421 61.9083 24.3206 62.926 23.8962C63.4289 23.684 63.9553 23.5021 64.47 23.3505C64.9964 23.2141 65.5228 23.1231 66.0491 23.0625C66.5755 23.017 67.1019 22.9867 67.6283 23.0019C67.7569 23.0019 67.8856 23.0019 68.026 23.017L68.4237 23.0473C68.5523 23.0625 68.6839 23.0739 68.8155 23.0852C68.9471 23.0966 69.0787 23.108 69.2074 23.1231C70.2485 23.305 71.2778 23.6082 72.2604 24.0781C73.243 24.5631 74.167 25.1997 75.0093 25.988C75.2198 26.185 75.4187 26.3972 75.6175 26.6094C75.6915 26.6993 75.7673 26.7869 75.8436 26.8748C75.9601 27.0094 76.0775 27.1449 76.1907 27.2915C76.5533 27.7614 76.8925 28.2616 77.1732 28.8225C76.8223 28.3526 76.4363 27.9282 76.0269 27.5341C75.8281 27.337 75.6175 27.1551 75.407 26.9732C75.1964 26.8065 74.9859 26.6397 74.7636 26.4882C73.8863 25.8819 72.9622 25.3968 72.0147 25.0785C71.0673 24.7602 70.0964 24.5934 69.1138 24.5328H68.3769H68.0143C67.9558 24.5328 67.8944 24.5366 67.833 24.5404C67.7715 24.5442 67.7101 24.548 67.6517 24.548C67.1604 24.5783 66.6808 24.6541 66.2012 24.7299C65.7216 24.8208 65.2537 24.9421 64.7858 25.0936C64.3179 25.2452 63.8617 25.4423 63.4172 25.6545C62.5282 26.0941 61.6743 26.6852 60.797 27.337C60.7232 27.3906 60.649 27.4446 60.5744 27.4989C59.7634 28.0896 58.909 28.7117 57.9663 29.156C57.4516 29.3985 56.9135 29.5804 56.3638 29.7016C55.8218 29.8212 55.2798 29.8818 54.7378 29.8835C54.1959 29.8818 53.6539 29.8212 53.1119 29.7016C52.5622 29.5804 52.0241 29.3985 51.5094 29.156C50.5262 28.6978 49.6473 28.0504 48.8235 27.4436C48.775 27.4079 48.7267 27.3724 48.6787 27.337C47.8014 26.6852 46.9592 26.1092 46.0585 25.6545C45.614 25.4271 45.1578 25.2452 44.6899 25.0936C44.222 24.9421 43.7541 24.8208 43.2745 24.7299C42.7949 24.6541 42.3036 24.5783 41.824 24.548C41.7656 24.548 41.7041 24.5442 41.6427 24.5404C41.5813 24.5366 41.5199 24.5328 41.4614 24.5328H41.0988H40.3619C39.391 24.5934 38.4201 24.7753 37.461 25.0785C36.4784 25.412 35.5543 25.897 34.677 26.5033" fill="white"/>
<path fill-rule="evenodd" clip-rule="evenodd" d="M61.1853 24.8131C61.7452 24.4658 62.3254 24.1467 62.926 23.8962C63.429 23.684 63.9554 23.5021 64.4701 23.3505C64.9965 23.2141 65.5228 23.1232 66.0492 23.0625C66.2846 23.0422 66.5199 23.0249 66.7553 23.0133C65.594 18.5202 63.1541 13.1179 60.5066 9.01427C58.6809 6.18446 54.6872 -3.05176e-05 54.6872 -3.05176e-05C54.6872 -3.05176e-05 50.6935 6.18446 48.8679 9.01427C46.2181 13.1214 43.7763 18.5294 42.6162 23.0247C42.8786 23.0361 43.1409 23.055 43.4033 23.0777C43.9296 23.1383 44.456 23.2293 44.9824 23.3657C45.5088 23.5021 46.0235 23.684 46.5264 23.9114C47.0949 24.1569 47.645 24.4592 48.177 24.7839C49.0856 22.0653 51.6521 20.106 54.6763 20.106C57.7113 20.106 60.2853 22.0794 61.1853 24.8131ZM64.8964 22.567C63.5274 13.6258 57.5415 5.42005 55.3719 2.85259C59.4887 8.05286 60.5683 13.9448 58.5446 16.5282C61.3982 17.587 63.6992 19.7837 64.8964 22.567ZM53.9866 2.85259C51.8221 5.41395 45.8595 13.5869 44.472 22.5032C45.6735 19.7421 47.9665 17.5656 50.8062 16.5184C48.7929 13.9299 49.8749 8.04629 53.9866 2.85259ZM54.647 2.42697C54.6729 2.40583 54.6866 2.39661 54.6872 2.39619C54.6878 2.39661 54.7015 2.40583 54.7275 2.42697C58.275 7.40903 59.1034 13.6859 57.1569 16.1146C56.3592 15.9328 55.529 15.8369 54.6763 15.8369L54.659 15.8369L54.6418 15.8369C53.8063 15.8369 52.9923 15.9293 52.2095 16.1045C50.2734 13.6687 51.1043 7.40218 54.647 2.42697Z" fill="white"/>
</svg>
