<svg width="12" height="12" viewBox="0 0 12 12" fill="none" xmlns="http://www.w3.org/2000/svg">
<path d="M11.614 8.6376C11.5928 8.62 9.1972 6.9056 8.5472 7.018C8.2348 7.0732 8.056 7.286 7.698 7.7128C7.6404 7.7816 7.5016 7.946 7.3944 8.0632C7.16813 7.98948 6.94743 7.89965 6.734 7.7944C5.63221 7.258 4.742 6.36779 4.2056 5.266C4.10035 5.05257 4.01052 4.83187 3.9368 4.6056C4.0544 4.498 4.2192 4.3592 4.2896 4.3C4.714 3.944 4.9268 3.7652 4.982 3.4524C5.0952 2.8048 3.38 0.4072 3.3624 0.3856C3.28429 0.274823 3.18256 0.18277 3.06455 0.116087C2.94654 0.0494037 2.8152 0.00975404 2.68 0C1.9848 0 0 2.5744 0 3.0084C0 3.0336 0.0364 5.5952 3.1952 8.8084C6.4048 11.9636 8.9664 12 8.9916 12C9.4256 12 12 10.0152 12 9.32C11.9903 9.18476 11.9506 9.05337 11.8838 8.93535C11.8171 8.81733 11.7249 8.71563 11.614 8.6376ZM8.9476 11.1976C8.598 11.1688 6.4484 10.8852 3.7608 8.2448C1.1068 5.5428 0.8304 3.3872 0.8028 3.0532C1.32711 2.23026 1.96032 1.48201 2.6852 0.8288C2.7012 0.8448 2.7224 0.8688 2.7496 0.9C3.30553 1.65889 3.78443 2.47131 4.1792 3.3252C4.05082 3.45435 3.91513 3.57602 3.7728 3.6896C3.55208 3.85778 3.34939 4.0484 3.168 4.2584L3.0708 4.3944L3.0996 4.5588C3.18425 4.92549 3.3139 5.28031 3.4856 5.6152C4.10075 6.87841 5.12151 7.89902 6.3848 8.514C6.71962 8.68595 7.07446 8.81573 7.4412 8.9004L7.6056 8.9292L7.7416 8.832C7.9524 8.6498 8.14381 8.44632 8.3128 8.2248C8.438 8.0752 8.6056 7.8756 8.6688 7.8192C9.52512 8.21358 10.3396 8.69306 11.1 9.2504C11.1332 9.2784 11.1564 9.3 11.172 9.314C10.5189 10.0391 9.77063 10.6725 8.9476 11.1968V11.1976Z" fill="#12223D"/>
</svg>
