<svg width="15" height="17" viewBox="0 0 15 17" fill="none" xmlns="http://www.w3.org/2000/svg">
<path d="M10.9573 8.21711C11.4019 7.58419 11.6642 6.84138 11.7156 6.06964C11.7671 5.2979 11.6057 4.52685 11.2491 3.84053C10.8924 3.15421 10.3542 2.57895 9.69314 2.17746C9.03206 1.77597 8.27345 1.56366 7.5 1.56366C6.72655 1.56366 5.96794 1.77597 5.30685 2.17746C4.64577 2.57895 4.10758 3.15421 3.75095 3.84053C3.39431 4.52685 3.23292 5.2979 3.28435 6.06964C3.33579 6.84138 3.59809 7.58419 4.04265 8.21711C3.16984 8.45633 2.39958 8.97524 1.84998 9.69425C1.30039 10.4133 1.0018 11.2927 1 12.1977V15.2215C1 15.3939 1.06848 15.5592 1.19038 15.6811C1.31228 15.803 1.47761 15.8715 1.65 15.8715H13.35C13.5224 15.8715 13.6877 15.803 13.8096 15.6811C13.9315 15.5592 14 15.3939 14 15.2215V12.1977C13.9982 11.2927 13.6996 10.4133 13.15 9.69425C12.6004 8.97524 11.8302 8.45633 10.9573 8.21711ZM7.5 2.87151C8.07851 2.87151 8.64403 3.04306 9.12504 3.36446C9.60606 3.68586 9.98096 4.14268 10.2023 4.67716C10.4237 5.21163 10.4817 5.79975 10.3688 6.36715C10.2559 6.93454 9.97736 7.45573 9.56829 7.86479C9.15922 8.27386 8.63803 8.55244 8.07064 8.6653C7.50324 8.77817 6.91512 8.72024 6.38065 8.49885C5.84618 8.27747 5.38935 7.90256 5.06795 7.42155C4.74655 6.94054 4.575 6.37502 4.575 5.79651C4.57586 5.02101 4.88431 4.27753 5.43266 3.72917C5.98102 3.18081 6.72451 2.87237 7.5 2.87151ZM12.7 14.5715H2.3V12.1977C2.30088 11.4803 2.57414 10.7901 3.06453 10.2665C3.55492 9.74295 4.22583 9.42514 4.9416 9.37736L5.23735 9.35851C5.91262 9.7914 6.69789 10.0215 7.5 10.0215C8.30211 10.0215 9.08738 9.7914 9.76265 9.35851L10.0584 9.37736C10.7742 9.42514 11.4451 9.74295 11.9355 10.2665C12.4259 10.7901 12.6991 11.4803 12.7 12.1977V14.5715Z" fill="#4E93D6"/>
</svg>
