<?xml version="1.0" encoding="utf-8"?><svg viewBox="0 0 20 20" xmlns="http://www.w3.org/2000/svg" xmlns:xlink="http://www.w3.org/1999/xlink"><style>:root>svg{display:none}:root>svg:target{display:block}</style><svg viewBox="0 0 17 17" id="facebook" xmlns="http://www.w3.org/2000/svg"><g clip-path="url(#aa)"><path d="M9.722 16.835V9.157h2.576l.387-2.994H9.722v-1.91c0-.867.24-1.458 1.483-1.458h1.584V.117A21.476 21.476 0 0010.481 0C8.196 0 6.63 1.395 6.63 3.956v2.207H4.047v2.994H6.63v7.678h3.09z"/></g><defs><clipPath id="aa"><path d="M0 0h16.835v16.835H0z"/></clipPath></defs></svg><svg viewBox="0 0 17 17" id="inst" xmlns="http://www.w3.org/2000/svg"><g clip-path="url(#ba)"><path d="M12.72 0H4.24A4.252 4.252 0 000 4.24v8.48a4.253 4.253 0 004.24 4.24h8.48a4.253 4.253 0 004.24-4.24V4.24A4.252 4.252 0 0012.72 0zM8.48 12.013a3.533 3.533 0 110-7.067 3.533 3.533 0 010 7.067zm4.593-7.067a1.06 1.06 0 110-2.119 1.06 1.06 0 010 2.12z"/></g><defs><clipPath id="ba"><path d="M0 0h16.959v16.959H0z"/></clipPath></defs></svg><svg viewBox="0 0 19 19" id="linkedin" xmlns="http://www.w3.org/2000/svg"><path d="M16.76 17.16v-5.39c0-2.65-.57-4.675-3.662-4.675-1.49 0-2.484.81-2.889 1.583h-.036V7.335H7.247v9.825h3.055v-4.876c0-1.288.239-2.52 1.821-2.52 1.564 0 1.583 1.453 1.583 2.594v4.784h3.054v.018zM2.28 7.334h3.054v9.826H2.279V7.334zM3.805 2.44c-.975 0-1.766.791-1.766 1.767 0 .975.791 1.784 1.766 1.784.976 0 1.767-.81 1.767-1.784 0-.976-.791-1.767-1.767-1.767z"/></svg><svg viewBox="0 0 16 12" id="mail" xmlns="http://www.w3.org/2000/svg"><path fill-rule="evenodd" clip-rule="evenodd" d="M1.806.418c.285-.157.607-.241.938-.241h11.312c.33 0 .653.084.938.24L8.992 5.824a.883.883 0 01-1.184 0L1.806.418zm13.943.747c.163.29.25.618.25.956v7.07c0 .347-.092.684-.264.979l-4.533-4.91 4.547-4.095zm-.778 9.74c-.28.15-.593.23-.915.23H2.744c-.322 0-.636-.08-.916-.23L6.385 5.97l.714.643c.74.666 1.862.666 2.602 0l.714-.643 4.556 4.937zM1.064 10.17A1.944 1.944 0 01.8 9.19V2.12c0-.337.087-.666.25-.955L5.598 5.26l-4.533 4.91z"/></svg><svg viewBox="0 0 16 18" id="pint" xmlns="http://www.w3.org/2000/svg"><path d="M8.24 0C3.384 0 .8 3.113.8 6.507c0 1.574.88 3.537 2.287 4.16.214.096.33.055.378-.143.042-.15.227-.876.317-1.219a.313.313 0 00-.075-.308c-.468-.54-.839-1.525-.839-2.449 0-2.367 1.882-4.666 5.085-4.666 2.77 0 4.707 1.8 4.707 4.373 0 2.907-1.539 4.92-3.539 4.92-1.106 0-1.93-.87-1.669-1.944.316-1.28.935-2.655.935-3.578 0-.828-.468-1.512-1.422-1.512-1.127 0-2.04 1.115-2.04 2.613 0 .952.336 1.594.336 1.594s-1.115 4.502-1.322 5.343c-.35 1.423.048 3.729.082 3.927.021.11.144.144.213.054.11-.144 1.457-2.066 1.834-3.455l.702-2.559c.37.67 1.442 1.232 2.583 1.232 3.394 0 5.847-2.983 5.847-6.685C15.188 2.655 12.15 0 8.24 0z"/></svg><svg viewBox="0 0 20 16" id="twitter" xmlns="http://www.w3.org/2000/svg"><path d="M19.806 1.828c-.742.366-1.485.488-2.352.61.867-.488 1.486-1.22 1.733-2.194-.742.487-1.609.731-2.6.975A4.357 4.357 0 0013.618 0c-2.105 0-3.961 1.828-3.961 4.022 0 .366 0 .61.123.853C6.437 4.754 3.342 3.17 1.362.731c-.372.61-.495 1.22-.495 2.072 0 1.341.742 2.56 1.856 3.291-.619 0-1.238-.243-1.856-.487 0 1.95 1.361 3.534 3.218 3.9-.371.122-.743.122-1.114.122-.248 0-.495 0-.743-.122a4.003 4.003 0 003.838 2.803C4.704 13.409 2.97 14.018.99 14.018H0c1.857 1.097 3.961 1.828 6.19 1.828 7.427 0 11.512-6.094 11.512-11.335v-.488c.867-.61 1.61-1.34 2.104-2.194z"/></svg><svg viewBox="0 0 20 20" id="youtube" xmlns="http://www.w3.org/2000/svg"><g clip-path="url(#ga)"><path d="M19.398 4.368c-.228-.893-.897-1.597-1.745-1.837-1.55-.447-7.75-.447-7.75-.447s-6.2 0-7.75.43c-.832.24-1.517.961-1.745 1.854C0 6 0 9.382 0 9.382s0 3.4.408 5.013c.228.893.897 1.597 1.746 1.837 1.566.447 7.75.447 7.75.447s6.199 0 7.749-.43c.848-.24 1.517-.944 1.746-1.837.407-1.63.407-5.013.407-5.013s.017-3.4-.408-5.03zM7.93 12.506v-6.25l5.156 3.126-5.156 3.124z"/></g><defs><clipPath id="ga"><path d="M0 0h19.806v19.806H0z"/></clipPath></defs></svg></svg>