<svg width="17" height="17" viewBox="0 0 17 17" fill="none" xmlns="http://www.w3.org/2000/svg">
<g clip-path="url(#clip0_108_846)">
<path d="M12.7195 0H4.23982C1.90813 0 0 1.9073 0 4.23982V12.7195C0 15.0512 1.90813 16.9593 4.23982 16.9593H12.7195C15.0512 16.9593 16.9593 15.0512 16.9593 12.7195V4.23982C16.9593 1.9073 15.0512 0 12.7195 0ZM8.47964 12.0127C6.52804 12.0127 4.94639 10.4304 4.94639 8.47964C4.94639 6.52804 6.52804 4.94639 8.47964 4.94639C10.4304 4.94639 12.0129 6.52804 12.0129 8.47964C12.0129 10.4304 10.4304 12.0127 8.47964 12.0127ZM13.0728 4.94639C12.4869 4.94639 12.0129 4.47173 12.0129 3.88643C12.0129 3.30114 12.4869 2.82648 13.0728 2.82648C13.6588 2.82648 14.1328 3.30114 14.1328 3.88643C14.1328 4.47173 13.6588 4.94639 13.0728 4.94639Z" fill="#EDF0F8"/>
</g>
<defs>
<clipPath id="clip0_108_846">
<rect width="16.9593" height="16.9593" fill="white"/>
</clipPath>
</defs>
</svg>
