<svg width="19" height="19" viewBox="0 0 19 19" fill="none" xmlns="http://www.w3.org/2000/svg">
<path d="M16.7599 17.1603V11.7691C16.7599 9.11946 16.1895 7.09546 13.0983 7.09546C11.6079 7.09546 10.6143 7.90506 10.2095 8.67786H10.1727V7.33466H7.24707V17.1603H10.3015V12.2843C10.3015 10.9963 10.5407 9.76346 12.1231 9.76346C13.6871 9.76346 13.7055 11.2171 13.7055 12.3579V17.1419H16.7599V17.1603Z" fill="white"/>
<path d="M2.2793 7.33447H5.3337V17.1601H2.2793V7.33447Z" fill="white"/>
<path d="M3.80546 2.44019C2.83026 2.44019 2.03906 3.23139 2.03906 4.20659C2.03906 5.18179 2.83026 5.99139 3.80546 5.99139C4.78066 5.99139 5.57186 5.18179 5.57186 4.20659C5.57186 3.23139 4.78066 2.44019 3.80546 2.44019Z" fill="white"/>
</svg>
