<svg width="16" height="12" viewBox="0 0 16 12" fill="none" xmlns="http://www.w3.org/2000/svg">
<path fill-rule="evenodd" clip-rule="evenodd" d="M1.80582 0.417823C2.09074 0.260874 2.41313 0.176758 2.74399 0.176758H14.0556C14.3865 0.176758 14.7089 0.260902 14.9938 0.417851L8.99153 5.82337C8.65501 6.12665 8.14457 6.12665 7.80805 5.82337L1.80582 0.417823ZM15.7488 1.16511C15.9122 1.45425 15.9998 1.78301 15.9998 2.12094V9.19071C15.9998 9.53782 15.9072 9.87506 15.7354 10.1699L11.2023 5.2592L15.7488 1.16511ZM14.9711 10.9058C14.6919 11.055 14.378 11.1349 14.0556 11.1349H2.74399C2.42161 11.1349 2.10771 11.055 1.82847 10.9058L6.38492 5.96903L7.09897 6.61169C7.83846 7.27766 8.96114 7.27766 9.70064 6.61169L10.4147 5.96903L14.9711 10.9058ZM1.06421 10.1699C0.892432 9.87506 0.799805 9.53785 0.799805 9.19071V2.12094C0.799805 1.78301 0.88747 1.45425 1.0508 1.16511L5.59738 5.2592L1.06421 10.1699Z" fill="white"/>
</svg>
