<svg width="16" height="18" viewBox="0 0 16 18" fill="none" xmlns="http://www.w3.org/2000/svg">
<path d="M8.24075 0C3.38314 0 0.799805 3.11286 0.799805 6.50709C0.799805 8.08124 1.67938 10.0442 3.08737 10.6668C3.30117 10.7632 3.41748 10.7222 3.46512 10.5239C3.50721 10.3732 3.69221 9.64763 3.78194 9.30533C3.80964 9.19566 3.79524 9.10039 3.70661 8.99737C3.23913 8.45677 2.86803 7.47196 2.86803 6.54807C2.86803 4.18075 4.75014 1.88211 7.95272 1.88211C10.7222 1.88211 12.6597 3.68114 12.6597 6.25451C12.6597 9.16243 11.121 11.1742 9.12143 11.1742C8.01476 11.1742 7.19057 10.3057 7.45201 9.23111C7.76772 7.95163 8.38697 6.57577 8.38697 5.65299C8.38697 4.82548 7.91949 4.14087 6.96459 4.14087C5.83798 4.14087 4.92406 5.2564 4.92406 6.75412C4.92406 7.7057 5.26082 8.34821 5.26082 8.34821C5.26082 8.34821 4.1464 12.8502 3.93925 13.691C3.58919 15.1145 3.98688 17.4198 4.02122 17.6181C4.04227 17.7278 4.16523 17.7621 4.23391 17.6724C4.34358 17.5284 5.69064 15.6064 6.06839 14.2172C6.20576 13.711 6.76962 11.6583 6.76962 11.6583C7.14072 12.3285 8.21194 12.8901 9.35295 12.8901C12.7472 12.8901 15.1998 9.90685 15.1998 6.20466C15.1876 2.65534 12.1501 0 8.24075 0Z" fill="white"/>
</svg>
