<svg width="20" height="16" viewBox="0 0 20 16" fill="none" xmlns="http://www.w3.org/2000/svg">
<path d="M19.8065 1.82829C19.0637 2.19395 18.321 2.31583 17.4545 2.43772C18.321 1.95018 18.9399 1.21886 19.1875 0.243772C18.4448 0.731316 17.5782 0.975088 16.5879 1.21886C15.8452 0.487544 14.7311 0 13.6169 0C11.5125 0 9.65565 1.82829 9.65565 4.02224C9.65565 4.38789 9.65565 4.63167 9.77944 4.87544C6.4371 4.75355 3.34234 3.16903 1.36169 0.731316C0.990324 1.34075 0.866533 1.95018 0.866533 2.80338C0.866533 4.14412 1.60928 5.36298 2.72339 6.0943C2.10444 6.0943 1.48549 5.85053 0.866533 5.60675C0.866533 7.55693 2.22823 9.14145 4.08508 9.5071C3.71371 9.62899 3.34234 9.62899 2.97097 9.62899C2.72339 9.62899 2.47581 9.62899 2.22823 9.5071C2.72339 11.0916 4.20888 12.3105 6.06573 12.3105C4.70404 13.4075 2.97097 14.0169 0.990324 14.0169C0.618952 14.0169 0.371371 14.0169 0 14.0169C1.85686 15.1139 3.96129 15.8452 6.18952 15.8452C13.6169 15.8452 17.702 9.75088 17.702 4.50978C17.702 4.38789 17.702 4.14412 17.702 4.02224C18.5686 3.41281 19.3113 2.68149 19.8065 1.82829Z" fill="#EDF0F8"/>
</svg>
