<svg width="16" height="18" viewBox="0 0 16 18" fill="none" xmlns="http://www.w3.org/2000/svg">
<path d="M10.0877 0.799988H6.70994C3.45883 0.799988 0.798828 3.45999 0.798828 6.7111V9.24443C0.798828 11.5244 2.12883 13.6144 4.17661 14.5855V17.4144C4.17661 17.6678 4.49327 17.7944 4.66216 17.6044L7.11105 15.1555H10.0877C13.3388 15.1555 15.9988 12.4955 15.9988 9.24443V6.7111C15.9988 3.45999 13.3388 0.799988 10.0877 0.799988ZM12.3044 11.8833L11.4388 12.7278C10.5311 13.6144 8.18772 12.6011 6.11883 10.49C4.04994 8.37888 3.14216 6.01443 4.00772 5.12777L4.85216 4.28332C5.16883 3.96665 5.69661 3.98777 6.0555 4.30443L7.27994 5.5711C7.72327 6.01443 7.53327 6.77443 6.96327 6.94332C6.56216 7.06999 6.28772 7.51332 6.41438 7.91443C6.62549 8.84332 7.80772 10.0255 8.69438 10.2578C9.0955 10.3422 9.53883 10.1311 9.68661 9.72999C9.87661 9.15999 10.6366 8.9911 11.0588 9.43443L12.2833 10.7011C12.6211 10.9967 12.6211 11.5244 12.3044 11.8833ZM9.15883 4.8111C9.07438 4.8111 8.98994 4.8111 8.9055 4.83221C8.75772 4.85332 8.60994 4.72665 8.58883 4.57888C8.56772 4.4311 8.69438 4.28332 8.84216 4.26221C8.94772 4.2411 9.05327 4.2411 9.15883 4.2411C10.6999 4.2411 11.9666 5.50777 11.9666 7.04888C11.9666 7.15443 11.9666 7.25999 11.9455 7.36554C11.9244 7.51332 11.7766 7.63999 11.6288 7.61888C11.4811 7.59777 11.3544 7.44999 11.3755 7.30221C11.3755 7.21777 11.3966 7.13332 11.3966 7.04888C11.4177 5.82443 10.4044 4.8111 9.15883 4.8111ZM10.8477 7.06999C10.8477 7.21777 10.7211 7.34443 10.5733 7.34443C10.4255 7.34443 10.2988 7.21777 10.2988 7.06999C10.2988 6.45777 9.79216 5.9511 9.17994 5.9511C9.03216 5.9511 8.9055 5.82443 8.9055 5.67665C8.9055 5.52888 9.03216 5.40221 9.17994 5.40221C10.0877 5.3811 10.8477 6.1411 10.8477 7.06999ZM13.0011 7.97777C12.9588 8.12554 12.8111 8.2311 12.6422 8.18888C12.4944 8.14665 12.4099 7.99888 12.4522 7.8511C12.5155 7.59777 12.5366 7.34443 12.5366 7.06999C12.5366 5.21221 11.0166 3.69221 9.15883 3.69221C9.07438 3.69221 8.98994 3.69221 8.9055 3.69221C8.75772 3.69221 8.60994 3.58665 8.60994 3.43888C8.60994 3.2911 8.7155 3.14332 8.86327 3.14332C8.96883 3.14332 9.07438 3.12221 9.15883 3.12221C11.3333 3.12221 13.1066 4.89554 13.1066 7.06999C13.1066 7.36554 13.0644 7.68221 13.0011 7.97777Z" fill="white"/>
</svg>
