<svg width="20" height="20" viewBox="0 0 20 20" fill="none" xmlns="http://www.w3.org/2000/svg">
<g clip-path="url(#clip0_108_855)">
<path d="M19.3984 4.36812C19.1701 3.47515 18.5011 2.77122 17.6527 2.53077C16.1028 2.08447 9.90301 2.08447 9.90301 2.08447C9.90301 2.08447 3.70344 2.08447 2.15352 2.51385C1.32144 2.75405 0.63612 3.47527 0.407881 4.36812C0 5.99912 0 9.38159 0 9.38159C0 9.38159 0 12.7811 0.407881 14.3951C0.636361 15.2879 1.30512 15.9918 2.15364 16.2323C3.71976 16.6787 9.90325 16.6787 9.90325 16.6787C9.90325 16.6787 16.1028 16.6787 17.6527 16.2493C18.5013 16.009 19.1701 15.3051 19.3986 14.4122C19.8064 12.7811 19.8064 9.39877 19.8064 9.39877C19.8064 9.39877 19.8227 5.99912 19.3984 4.36812ZM7.92913 12.5064V6.25675L13.0846 9.38159L7.92913 12.5064Z" fill="#EDF0F8"/>
</g>
<defs>
<clipPath id="clip0_108_855">
<rect width="19.8065" height="19.8065" fill="white"/>
</clipPath>
</defs>
</svg>
